<svg width="24" height="24" viewBox="0 0 24 24" fill="none" xmlns="http://www.w3.org/2000/svg">
<path d="M6.55197 6.41065L2.72955 10.2322C2.2623 10.7018 2 11.3373 2 11.9997C2 12.6621 2.2623 13.2976 2.72955 13.7672L6.55114 17.5888C6.62801 17.6684 6.71996 17.7318 6.82163 17.7755C6.9233 17.8192 7.03264 17.8422 7.14329 17.8431C7.25394 17.8441 7.36367 17.823 7.46608 17.7811C7.56849 17.7392 7.66153 17.6773 7.73978 17.5991C7.81802 17.5209 7.8799 17.4278 7.9218 17.3254C7.9637 17.223 7.98478 17.1133 7.98382 17.0026C7.98286 16.892 7.95987 16.7826 7.9162 16.6809C7.87252 16.5793 7.80904 16.4873 7.72945 16.4105L4.15369 12.833H21.1667C21.3877 12.833 21.5997 12.7452 21.7559 12.589C21.9122 12.4327 22 12.2207 22 11.9997C22 11.7787 21.9122 11.5667 21.7559 11.4105C21.5997 11.2542 21.3877 11.1664 21.1667 11.1664H4.15285L7.73028 7.58896C7.80987 7.51209 7.87336 7.42014 7.91703 7.31847C7.9607 7.2168 7.98369 7.10746 7.98465 6.99681C7.98561 6.88616 7.96453 6.77643 7.92263 6.67402C7.88073 6.57161 7.81885 6.47857 7.74061 6.40032C7.66237 6.32208 7.56933 6.2602 7.46692 6.2183C7.3645 6.1764 7.25477 6.15532 7.14413 6.15628C7.03348 6.15724 6.92413 6.18023 6.82246 6.2239C6.72079 6.26758 6.62884 6.33106 6.55197 6.41065Z" fill="#73879B"/>
</svg>
