<svg width="320" height="1148" viewBox="0 0 320 1148" fill="none" xmlns="http://www.w3.org/2000/svg">
<g clip-path="url(#clip0)">
<rect width="320" height="1148" fill="white"/>
<rect width="320" height="42" fill="#E2E2E2"/>
<circle cx="22" cy="21" r="12" fill="#C4C4C4"/>
<circle cx="298" cy="21" r="12" fill="#C4C4C4"/>
<path d="M266 29.3333C266.917 29.3333 267.667 28.5833 267.667 27.6667H264.333C264.333 28.5833 265.083 29.3333 266 29.3333ZM271 19.3333C271 17.0083 269.408 15.05 267.25 14.5V13.9167C267.25 13.225 266.692 12.6667 266 12.6667C265.308 12.6667 264.75 13.225 264.75 13.9167V14.5C262.592 15.05 261 17.0083 261 19.3333V25.1667H260.167C259.708 25.1667 259.333 25.5417 259.333 26C259.333 26.4583 259.708 26.8333 260.167 26.8333H271.833C272.292 26.8333 272.667 26.4583 272.667 26C272.667 25.5417 272.292 25.1667 271.833 25.1667H271V19.3333ZM261.125 13.625C260.792 13.2917 260.25 13.3 259.925 13.6417C258.693 14.9504 257.919 16.6226 257.717 18.4083C257.667 18.9 258.058 19.3333 258.55 19.3333C258.967 19.3333 259.325 19.025 259.375 18.6083C259.533 17.1333 260.183 15.8 261.142 14.7667C261.45 14.45 261.442 13.9417 261.125 13.625ZM270.883 13.6333C270.567 13.95 270.558 14.4583 270.867 14.7833C271.859 15.8337 272.479 17.1802 272.633 18.6167C272.675 19.0333 273.042 19.3417 273.458 19.3417C273.576 19.3424 273.692 19.3182 273.8 19.2707C273.908 19.2232 274.004 19.1535 274.083 19.0661C274.161 18.9788 274.221 18.8757 274.257 18.7638C274.293 18.6518 274.305 18.5335 274.292 18.4167C274.092 16.5833 273.292 14.9333 272.092 13.6583C271.758 13.3083 271.217 13.3 270.883 13.6333Z" fill="#F9F9F9"/>
<circle cx="272" cy="15" r="4" fill="#C4C4C4"/>
<path d="M271.013 16.556H271.853V13.652L271.913 13.298L271.673 13.58L271.013 14.054L270.785 13.748L272.105 12.728H272.321V16.556H273.143V17H271.013V16.556Z" fill="black"/>
<g clip-path="url(#clip1)">
<circle cx="64" cy="21" r="10" fill="#C4C4C4"/>
<path d="M92.7117 14.85C92.7117 13.77 92.8857 12.957 93.2337 12.411C93.5877 11.865 94.1007 11.592 94.7727 11.592C95.4987 11.592 96.0237 11.862 96.3477 12.402C96.6777 12.936 96.8427 13.752 96.8427 14.85C96.8427 15.93 96.6657 16.743 96.3117 17.289C95.9637 17.835 95.4507 18.108 94.7727 18.108C94.0587 18.108 93.5367 17.823 93.2067 17.253C92.8767 16.683 92.7117 15.882 92.7117 14.85ZM93.4587 14.85C93.4587 15.24 93.4827 15.597 93.5307 15.921C93.5847 16.239 93.6657 16.515 93.7737 16.749C93.8817 16.977 94.0167 17.157 94.1787 17.289C94.3467 17.415 94.5447 17.478 94.7727 17.478C95.2287 17.478 95.5617 17.268 95.7717 16.848C95.9877 16.422 96.0957 15.756 96.0957 14.85C96.0957 14.466 96.0717 14.112 96.0237 13.788C95.9817 13.464 95.9067 13.185 95.7987 12.951C95.6967 12.717 95.5617 12.537 95.3937 12.411C95.2257 12.285 95.0187 12.222 94.7727 12.222C94.3227 12.222 93.9897 12.435 93.7737 12.861C93.5637 13.287 93.4587 13.95 93.4587 14.85ZM97.67 17.586C97.67 17.424 97.715 17.298 97.805 17.208C97.901 17.112 98.027 17.064 98.183 17.064C98.345 17.064 98.474 17.112 98.57 17.208C98.666 17.298 98.714 17.424 98.714 17.586C98.714 17.742 98.666 17.868 98.57 17.964C98.474 18.06 98.345 18.108 98.183 18.108C98.027 18.108 97.901 18.06 97.805 17.964C97.715 17.868 97.67 17.742 97.67 17.586ZM99.5408 14.85C99.5408 13.77 99.7148 12.957 100.063 12.411C100.417 11.865 100.93 11.592 101.602 11.592C102.328 11.592 102.853 11.862 103.177 12.402C103.507 12.936 103.672 13.752 103.672 14.85C103.672 15.93 103.495 16.743 103.141 17.289C102.793 17.835 102.28 18.108 101.602 18.108C100.888 18.108 100.366 17.823 100.036 17.253C99.7058 16.683 99.5408 15.882 99.5408 14.85ZM100.288 14.85C100.288 15.24 100.312 15.597 100.36 15.921C100.414 16.239 100.495 16.515 100.603 16.749C100.711 16.977 100.846 17.157 101.008 17.289C101.176 17.415 101.374 17.478 101.602 17.478C102.058 17.478 102.391 17.268 102.601 16.848C102.817 16.422 102.925 15.756 102.925 14.85C102.925 14.466 102.901 14.112 102.853 13.788C102.811 13.464 102.736 13.185 102.628 12.951C102.526 12.717 102.391 12.537 102.223 12.411C102.055 12.285 101.848 12.222 101.602 12.222C101.152 12.222 100.819 12.435 100.603 12.861C100.393 13.287 100.288 13.95 100.288 14.85ZM104.445 14.85C104.445 13.77 104.619 12.957 104.967 12.411C105.321 11.865 105.834 11.592 106.506 11.592C107.232 11.592 107.757 11.862 108.081 12.402C108.411 12.936 108.576 13.752 108.576 14.85C108.576 15.93 108.399 16.743 108.045 17.289C107.697 17.835 107.184 18.108 106.506 18.108C105.792 18.108 105.27 17.823 104.94 17.253C104.61 16.683 104.445 15.882 104.445 14.85ZM105.192 14.85C105.192 15.24 105.216 15.597 105.264 15.921C105.318 16.239 105.399 16.515 105.507 16.749C105.615 16.977 105.75 17.157 105.912 17.289C106.08 17.415 106.278 17.478 106.506 17.478C106.962 17.478 107.295 17.268 107.505 16.848C107.721 16.422 107.829 15.756 107.829 14.85C107.829 14.466 107.805 14.112 107.757 13.788C107.715 13.464 107.64 13.185 107.532 12.951C107.43 12.717 107.295 12.537 107.127 12.411C106.959 12.285 106.752 12.222 106.506 12.222C106.056 12.222 105.723 12.435 105.507 12.861C105.297 13.287 105.192 13.95 105.192 14.85ZM109.349 14.85C109.349 13.77 109.523 12.957 109.871 12.411C110.225 11.865 110.738 11.592 111.41 11.592C112.136 11.592 112.661 11.862 112.985 12.402C113.315 12.936 113.48 13.752 113.48 14.85C113.48 15.93 113.303 16.743 112.949 17.289C112.601 17.835 112.088 18.108 111.41 18.108C110.696 18.108 110.174 17.823 109.844 17.253C109.514 16.683 109.349 15.882 109.349 14.85ZM110.096 14.85C110.096 15.24 110.12 15.597 110.168 15.921C110.222 16.239 110.303 16.515 110.411 16.749C110.519 16.977 110.654 17.157 110.816 17.289C110.984 17.415 111.182 17.478 111.41 17.478C111.866 17.478 112.199 17.268 112.409 16.848C112.625 16.422 112.733 15.756 112.733 14.85C112.733 14.466 112.709 14.112 112.661 13.788C112.619 13.464 112.544 13.185 112.436 12.951C112.334 12.717 112.199 12.537 112.031 12.411C111.863 12.285 111.656 12.222 111.41 12.222C110.96 12.222 110.627 12.435 110.411 12.861C110.201 13.287 110.096 13.95 110.096 14.85ZM114.254 14.85C114.254 13.77 114.428 12.957 114.776 12.411C115.13 11.865 115.643 11.592 116.315 11.592C117.041 11.592 117.566 11.862 117.89 12.402C118.22 12.936 118.385 13.752 118.385 14.85C118.385 15.93 118.208 16.743 117.854 17.289C117.506 17.835 116.993 18.108 116.315 18.108C115.601 18.108 115.079 17.823 114.749 17.253C114.419 16.683 114.254 15.882 114.254 14.85ZM115.001 14.85C115.001 15.24 115.025 15.597 115.073 15.921C115.127 16.239 115.208 16.515 115.316 16.749C115.424 16.977 115.559 17.157 115.721 17.289C115.889 17.415 116.087 17.478 116.315 17.478C116.771 17.478 117.104 17.268 117.314 16.848C117.53 16.422 117.638 15.756 117.638 14.85C117.638 14.466 117.614 14.112 117.566 13.788C117.524 13.464 117.449 13.185 117.341 12.951C117.239 12.717 117.104 12.537 116.936 12.411C116.768 12.285 116.561 12.222 116.315 12.222C115.865 12.222 115.532 12.435 115.316 12.861C115.106 13.287 115.001 13.95 115.001 14.85ZM119.743 17.334H121.003V12.978L121.093 12.447L120.733 12.87L119.743 13.581L119.401 13.122L121.381 11.592H121.705V17.334H122.938V18H119.743V17.334Z" fill="black"/>
<path d="M83.3536 11.6464C83.1583 11.4512 82.8417 11.4512 82.6464 11.6464L79.4645 14.8284C79.2692 15.0237 79.2692 15.3403 79.4645 15.5355C79.6597 15.7308 79.9763 15.7308 80.1716 15.5355L83 12.7071L85.8284 15.5355C86.0237 15.7308 86.3403 15.7308 86.5355 15.5355C86.7308 15.3403 86.7308 15.0237 86.5355 14.8284L83.3536 11.6464ZM83.5 19V12H82.5V19H83.5Z" fill="black"/>
<path d="M86.589 26.634H88.173V25.005H88.821V26.634H90.405V27.282H88.821V28.902H88.173V27.282H86.589V26.634ZM93.5594 26.85C93.5594 25.77 93.7334 24.957 94.0814 24.411C94.4354 23.865 94.9484 23.592 95.6204 23.592C96.3464 23.592 96.8714 23.862 97.1954 24.402C97.5254 24.936 97.6904 25.752 97.6904 26.85C97.6904 27.93 97.5134 28.743 97.1594 29.289C96.8114 29.835 96.2984 30.108 95.6204 30.108C94.9064 30.108 94.3844 29.823 94.0544 29.253C93.7244 28.683 93.5594 27.882 93.5594 26.85ZM94.3064 26.85C94.3064 27.24 94.3304 27.597 94.3784 27.921C94.4324 28.239 94.5134 28.515 94.6214 28.749C94.7294 28.977 94.8644 29.157 95.0264 29.289C95.1944 29.415 95.3924 29.478 95.6204 29.478C96.0764 29.478 96.4094 29.268 96.6194 28.848C96.8354 28.422 96.9434 27.756 96.9434 26.85C96.9434 26.466 96.9194 26.112 96.8714 25.788C96.8294 25.464 96.7544 25.185 96.6464 24.951C96.5444 24.717 96.4094 24.537 96.2414 24.411C96.0734 24.285 95.8664 24.222 95.6204 24.222C95.1704 24.222 94.8374 24.435 94.6214 24.861C94.4114 25.287 94.3064 25.95 94.3064 26.85ZM98.5177 29.586C98.5177 29.424 98.5627 29.298 98.6527 29.208C98.7487 29.112 98.8747 29.064 99.0307 29.064C99.1927 29.064 99.3217 29.112 99.4177 29.208C99.5137 29.298 99.5617 29.424 99.5617 29.586C99.5617 29.742 99.5137 29.868 99.4177 29.964C99.3217 30.06 99.1927 30.108 99.0307 30.108C98.8747 30.108 98.7487 30.06 98.6527 29.964C98.5627 29.868 98.5177 29.742 98.5177 29.586ZM100.388 26.85C100.388 25.77 100.562 24.957 100.91 24.411C101.264 23.865 101.777 23.592 102.449 23.592C103.175 23.592 103.7 23.862 104.024 24.402C104.354 24.936 104.519 25.752 104.519 26.85C104.519 27.93 104.342 28.743 103.988 29.289C103.64 29.835 103.127 30.108 102.449 30.108C101.735 30.108 101.213 29.823 100.883 29.253C100.553 28.683 100.388 27.882 100.388 26.85ZM101.135 26.85C101.135 27.24 101.159 27.597 101.207 27.921C101.261 28.239 101.342 28.515 101.45 28.749C101.558 28.977 101.693 29.157 101.855 29.289C102.023 29.415 102.221 29.478 102.449 29.478C102.905 29.478 103.238 29.268 103.448 28.848C103.664 28.422 103.772 27.756 103.772 26.85C103.772 26.466 103.748 26.112 103.7 25.788C103.658 25.464 103.583 25.185 103.475 24.951C103.373 24.717 103.238 24.537 103.07 24.411C102.902 24.285 102.695 24.222 102.449 24.222C101.999 24.222 101.666 24.435 101.45 24.861C101.24 25.287 101.135 25.95 101.135 26.85ZM107.012 29.478C107.216 29.478 107.405 29.448 107.579 29.388C107.753 29.328 107.903 29.241 108.029 29.127C108.155 29.007 108.254 28.866 108.326 28.704C108.398 28.542 108.434 28.365 108.434 28.173C108.434 27.753 108.308 27.441 108.056 27.237C107.81 27.033 107.468 26.931 107.03 26.931H106.364V26.67L107.66 24.672L108.074 24.276L107.489 24.366H105.707V23.7H108.92V23.961L107.489 26.112L107.174 26.373V26.391L107.48 26.328C107.72 26.334 107.942 26.379 108.146 26.463C108.35 26.541 108.527 26.658 108.677 26.814C108.827 26.964 108.944 27.147 109.028 27.363C109.112 27.573 109.154 27.813 109.154 28.083C109.154 28.407 109.097 28.695 108.983 28.947C108.869 29.199 108.713 29.412 108.515 29.586C108.323 29.754 108.095 29.883 107.831 29.973C107.567 30.063 107.288 30.108 106.994 30.108C106.724 30.108 106.481 30.087 106.265 30.045C106.049 30.003 105.86 29.949 105.698 29.883L105.887 29.244C106.025 29.31 106.187 29.367 106.373 29.415C106.565 29.457 106.778 29.478 107.012 29.478ZM110.44 25.122C110.44 24.852 110.476 24.621 110.548 24.429C110.62 24.237 110.716 24.078 110.836 23.952C110.962 23.826 111.109 23.736 111.277 23.682C111.451 23.622 111.637 23.592 111.835 23.592C112.033 23.592 112.216 23.619 112.384 23.673C112.558 23.727 112.705 23.814 112.825 23.934C112.951 24.054 113.05 24.213 113.122 24.411C113.194 24.603 113.23 24.84 113.23 25.122C113.23 25.404 113.194 25.644 113.122 25.842C113.05 26.034 112.951 26.19 112.825 26.31C112.705 26.43 112.558 26.517 112.384 26.571C112.216 26.625 112.033 26.652 111.835 26.652C111.637 26.652 111.451 26.625 111.277 26.571C111.109 26.517 110.962 26.43 110.836 26.31C110.716 26.19 110.62 26.034 110.548 25.842C110.476 25.644 110.44 25.404 110.44 25.122ZM111.106 25.122C111.106 25.482 111.169 25.74 111.295 25.896C111.427 26.052 111.607 26.13 111.835 26.13C111.949 26.13 112.051 26.115 112.141 26.085C112.231 26.049 112.306 25.995 112.366 25.923C112.432 25.845 112.48 25.743 112.51 25.617C112.546 25.485 112.564 25.32 112.564 25.122C112.564 24.924 112.546 24.762 112.51 24.636C112.48 24.504 112.432 24.402 112.366 24.33C112.306 24.252 112.231 24.198 112.141 24.168C112.051 24.132 111.949 24.114 111.835 24.114C111.607 24.114 111.427 24.186 111.295 24.33C111.169 24.468 111.106 24.732 111.106 25.122ZM113.653 28.461C113.653 28.191 113.689 27.96 113.761 27.768C113.833 27.576 113.929 27.417 114.049 27.291C114.175 27.165 114.322 27.075 114.49 27.021C114.664 26.961 114.85 26.931 115.048 26.931C115.246 26.931 115.429 26.958 115.597 27.012C115.771 27.066 115.918 27.153 116.038 27.273C116.164 27.393 116.263 27.552 116.335 27.75C116.407 27.942 116.443 28.179 116.443 28.461C116.443 28.743 116.407 28.983 116.335 29.181C116.263 29.373 116.164 29.529 116.038 29.649C115.918 29.769 115.771 29.856 115.597 29.91C115.429 29.964 115.246 29.991 115.048 29.991C114.85 29.991 114.664 29.964 114.49 29.91C114.322 29.856 114.175 29.769 114.049 29.649C113.929 29.529 113.833 29.373 113.761 29.181C113.689 28.983 113.653 28.743 113.653 28.461ZM114.319 28.461C114.319 28.821 114.382 29.079 114.508 29.235C114.64 29.391 114.82 29.469 115.048 29.469C115.162 29.469 115.264 29.454 115.354 29.424C115.444 29.388 115.519 29.334 115.579 29.262C115.645 29.184 115.693 29.082 115.723 28.956C115.759 28.824 115.777 28.659 115.777 28.461C115.777 28.263 115.759 28.101 115.723 27.975C115.693 27.843 115.645 27.741 115.579 27.669C115.519 27.591 115.444 27.537 115.354 27.507C115.264 27.471 115.162 27.453 115.048 27.453C114.82 27.453 114.64 27.525 114.508 27.669C114.382 27.807 114.319 28.071 114.319 28.461ZM115.543 23.583L115.984 23.925L111.367 30.108L110.917 29.757L115.543 23.583Z" fill="black"/>
<path d="M140 19L136 23L132 19" stroke="#73879B" stroke-width="1.3" stroke-linecap="round" stroke-linejoin="round"/>
</g>
<g clip-path="url(#clip2)">
<circle cx="164" cy="21" r="10" fill="#C4C4C4"/>
<path d="M192.712 14.85C192.712 13.77 192.886 12.957 193.234 12.411C193.588 11.865 194.101 11.592 194.773 11.592C195.499 11.592 196.024 11.862 196.348 12.402C196.678 12.936 196.843 13.752 196.843 14.85C196.843 15.93 196.666 16.743 196.312 17.289C195.964 17.835 195.451 18.108 194.773 18.108C194.059 18.108 193.537 17.823 193.207 17.253C192.877 16.683 192.712 15.882 192.712 14.85ZM193.459 14.85C193.459 15.24 193.483 15.597 193.531 15.921C193.585 16.239 193.666 16.515 193.774 16.749C193.882 16.977 194.017 17.157 194.179 17.289C194.347 17.415 194.545 17.478 194.773 17.478C195.229 17.478 195.562 17.268 195.772 16.848C195.988 16.422 196.096 15.756 196.096 14.85C196.096 14.466 196.072 14.112 196.024 13.788C195.982 13.464 195.907 13.185 195.799 12.951C195.697 12.717 195.562 12.537 195.394 12.411C195.226 12.285 195.019 12.222 194.773 12.222C194.323 12.222 193.99 12.435 193.774 12.861C193.564 13.287 193.459 13.95 193.459 14.85ZM197.67 17.586C197.67 17.424 197.715 17.298 197.805 17.208C197.901 17.112 198.027 17.064 198.183 17.064C198.345 17.064 198.474 17.112 198.57 17.208C198.666 17.298 198.714 17.424 198.714 17.586C198.714 17.742 198.666 17.868 198.57 17.964C198.474 18.06 198.345 18.108 198.183 18.108C198.027 18.108 197.901 18.06 197.805 17.964C197.715 17.868 197.67 17.742 197.67 17.586ZM199.541 14.85C199.541 13.77 199.715 12.957 200.063 12.411C200.417 11.865 200.93 11.592 201.602 11.592C202.328 11.592 202.853 11.862 203.177 12.402C203.507 12.936 203.672 13.752 203.672 14.85C203.672 15.93 203.495 16.743 203.141 17.289C202.793 17.835 202.28 18.108 201.602 18.108C200.888 18.108 200.366 17.823 200.036 17.253C199.706 16.683 199.541 15.882 199.541 14.85ZM200.288 14.85C200.288 15.24 200.312 15.597 200.36 15.921C200.414 16.239 200.495 16.515 200.603 16.749C200.711 16.977 200.846 17.157 201.008 17.289C201.176 17.415 201.374 17.478 201.602 17.478C202.058 17.478 202.391 17.268 202.601 16.848C202.817 16.422 202.925 15.756 202.925 14.85C202.925 14.466 202.901 14.112 202.853 13.788C202.811 13.464 202.736 13.185 202.628 12.951C202.526 12.717 202.391 12.537 202.223 12.411C202.055 12.285 201.848 12.222 201.602 12.222C201.152 12.222 200.819 12.435 200.603 12.861C200.393 13.287 200.288 13.95 200.288 14.85ZM204.445 14.85C204.445 13.77 204.619 12.957 204.967 12.411C205.321 11.865 205.834 11.592 206.506 11.592C207.232 11.592 207.757 11.862 208.081 12.402C208.411 12.936 208.576 13.752 208.576 14.85C208.576 15.93 208.399 16.743 208.045 17.289C207.697 17.835 207.184 18.108 206.506 18.108C205.792 18.108 205.27 17.823 204.94 17.253C204.61 16.683 204.445 15.882 204.445 14.85ZM205.192 14.85C205.192 15.24 205.216 15.597 205.264 15.921C205.318 16.239 205.399 16.515 205.507 16.749C205.615 16.977 205.75 17.157 205.912 17.289C206.08 17.415 206.278 17.478 206.506 17.478C206.962 17.478 207.295 17.268 207.505 16.848C207.721 16.422 207.829 15.756 207.829 14.85C207.829 14.466 207.805 14.112 207.757 13.788C207.715 13.464 207.64 13.185 207.532 12.951C207.43 12.717 207.295 12.537 207.127 12.411C206.959 12.285 206.752 12.222 206.506 12.222C206.056 12.222 205.723 12.435 205.507 12.861C205.297 13.287 205.192 13.95 205.192 14.85ZM209.349 14.85C209.349 13.77 209.523 12.957 209.871 12.411C210.225 11.865 210.738 11.592 211.41 11.592C212.136 11.592 212.661 11.862 212.985 12.402C213.315 12.936 213.48 13.752 213.48 14.85C213.48 15.93 213.303 16.743 212.949 17.289C212.601 17.835 212.088 18.108 211.41 18.108C210.696 18.108 210.174 17.823 209.844 17.253C209.514 16.683 209.349 15.882 209.349 14.85ZM210.096 14.85C210.096 15.24 210.12 15.597 210.168 15.921C210.222 16.239 210.303 16.515 210.411 16.749C210.519 16.977 210.654 17.157 210.816 17.289C210.984 17.415 211.182 17.478 211.41 17.478C211.866 17.478 212.199 17.268 212.409 16.848C212.625 16.422 212.733 15.756 212.733 14.85C212.733 14.466 212.709 14.112 212.661 13.788C212.619 13.464 212.544 13.185 212.436 12.951C212.334 12.717 212.199 12.537 212.031 12.411C211.863 12.285 211.656 12.222 211.41 12.222C210.96 12.222 210.627 12.435 210.411 12.861C210.201 13.287 210.096 13.95 210.096 14.85ZM214.254 14.85C214.254 13.77 214.428 12.957 214.776 12.411C215.13 11.865 215.643 11.592 216.315 11.592C217.041 11.592 217.566 11.862 217.89 12.402C218.22 12.936 218.385 13.752 218.385 14.85C218.385 15.93 218.208 16.743 217.854 17.289C217.506 17.835 216.993 18.108 216.315 18.108C215.601 18.108 215.079 17.823 214.749 17.253C214.419 16.683 214.254 15.882 214.254 14.85ZM215.001 14.85C215.001 15.24 215.025 15.597 215.073 15.921C215.127 16.239 215.208 16.515 215.316 16.749C215.424 16.977 215.559 17.157 215.721 17.289C215.889 17.415 216.087 17.478 216.315 17.478C216.771 17.478 217.104 17.268 217.314 16.848C217.53 16.422 217.638 15.756 217.638 14.85C217.638 14.466 217.614 14.112 217.566 13.788C217.524 13.464 217.449 13.185 217.341 12.951C217.239 12.717 217.104 12.537 216.936 12.411C216.768 12.285 216.561 12.222 216.315 12.222C215.865 12.222 215.532 12.435 215.316 12.861C215.106 13.287 215.001 13.95 215.001 14.85ZM219.743 17.334H221.003V12.978L221.093 12.447L220.733 12.87L219.743 13.581L219.401 13.122L221.381 11.592H221.705V17.334H222.938V18H219.743V17.334Z" fill="black"/>
<path d="M183.354 11.6464C183.158 11.4512 182.842 11.4512 182.646 11.6464L179.464 14.8284C179.269 15.0237 179.269 15.3403 179.464 15.5355C179.66 15.7308 179.976 15.7308 180.172 15.5355L183 12.7071L185.828 15.5355C186.024 15.7308 186.34 15.7308 186.536 15.5355C186.731 15.3403 186.731 15.0237 186.536 14.8284L183.354 11.6464ZM183.5 19V12H182.5V19H183.5Z" fill="black"/>
<path d="M187.589 26.634H189.173V25.005H189.821V26.634H191.405V27.282H189.821V28.902H189.173V27.282H187.589V26.634ZM194.559 26.85C194.559 25.77 194.733 24.957 195.081 24.411C195.435 23.865 195.948 23.592 196.62 23.592C197.346 23.592 197.871 23.862 198.195 24.402C198.525 24.936 198.69 25.752 198.69 26.85C198.69 27.93 198.513 28.743 198.159 29.289C197.811 29.835 197.298 30.108 196.62 30.108C195.906 30.108 195.384 29.823 195.054 29.253C194.724 28.683 194.559 27.882 194.559 26.85ZM195.306 26.85C195.306 27.24 195.33 27.597 195.378 27.921C195.432 28.239 195.513 28.515 195.621 28.749C195.729 28.977 195.864 29.157 196.026 29.289C196.194 29.415 196.392 29.478 196.62 29.478C197.076 29.478 197.409 29.268 197.619 28.848C197.835 28.422 197.943 27.756 197.943 26.85C197.943 26.466 197.919 26.112 197.871 25.788C197.829 25.464 197.754 25.185 197.646 24.951C197.544 24.717 197.409 24.537 197.241 24.411C197.073 24.285 196.866 24.222 196.62 24.222C196.17 24.222 195.837 24.435 195.621 24.861C195.411 25.287 195.306 25.95 195.306 26.85ZM199.518 29.586C199.518 29.424 199.563 29.298 199.653 29.208C199.749 29.112 199.875 29.064 200.031 29.064C200.193 29.064 200.322 29.112 200.418 29.208C200.514 29.298 200.562 29.424 200.562 29.586C200.562 29.742 200.514 29.868 200.418 29.964C200.322 30.06 200.193 30.108 200.031 30.108C199.875 30.108 199.749 30.06 199.653 29.964C199.563 29.868 199.518 29.742 199.518 29.586ZM201.388 26.85C201.388 25.77 201.562 24.957 201.91 24.411C202.264 23.865 202.777 23.592 203.449 23.592C204.175 23.592 204.7 23.862 205.024 24.402C205.354 24.936 205.519 25.752 205.519 26.85C205.519 27.93 205.342 28.743 204.988 29.289C204.64 29.835 204.127 30.108 203.449 30.108C202.735 30.108 202.213 29.823 201.883 29.253C201.553 28.683 201.388 27.882 201.388 26.85ZM202.135 26.85C202.135 27.24 202.159 27.597 202.207 27.921C202.261 28.239 202.342 28.515 202.45 28.749C202.558 28.977 202.693 29.157 202.855 29.289C203.023 29.415 203.221 29.478 203.449 29.478C203.905 29.478 204.238 29.268 204.448 28.848C204.664 28.422 204.772 27.756 204.772 26.85C204.772 26.466 204.748 26.112 204.7 25.788C204.658 25.464 204.583 25.185 204.475 24.951C204.373 24.717 204.238 24.537 204.07 24.411C203.902 24.285 203.695 24.222 203.449 24.222C202.999 24.222 202.666 24.435 202.45 24.861C202.24 25.287 202.135 25.95 202.135 26.85ZM208.012 29.478C208.216 29.478 208.405 29.448 208.579 29.388C208.753 29.328 208.903 29.241 209.029 29.127C209.155 29.007 209.254 28.866 209.326 28.704C209.398 28.542 209.434 28.365 209.434 28.173C209.434 27.753 209.308 27.441 209.056 27.237C208.81 27.033 208.468 26.931 208.03 26.931H207.364V26.67L208.66 24.672L209.074 24.276L208.489 24.366H206.707V23.7H209.92V23.961L208.489 26.112L208.174 26.373V26.391L208.48 26.328C208.72 26.334 208.942 26.379 209.146 26.463C209.35 26.541 209.527 26.658 209.677 26.814C209.827 26.964 209.944 27.147 210.028 27.363C210.112 27.573 210.154 27.813 210.154 28.083C210.154 28.407 210.097 28.695 209.983 28.947C209.869 29.199 209.713 29.412 209.515 29.586C209.323 29.754 209.095 29.883 208.831 29.973C208.567 30.063 208.288 30.108 207.994 30.108C207.724 30.108 207.481 30.087 207.265 30.045C207.049 30.003 206.86 29.949 206.698 29.883L206.887 29.244C207.025 29.31 207.187 29.367 207.373 29.415C207.565 29.457 207.778 29.478 208.012 29.478ZM211.44 25.122C211.44 24.852 211.476 24.621 211.548 24.429C211.62 24.237 211.716 24.078 211.836 23.952C211.962 23.826 212.109 23.736 212.277 23.682C212.451 23.622 212.637 23.592 212.835 23.592C213.033 23.592 213.216 23.619 213.384 23.673C213.558 23.727 213.705 23.814 213.825 23.934C213.951 24.054 214.05 24.213 214.122 24.411C214.194 24.603 214.23 24.84 214.23 25.122C214.23 25.404 214.194 25.644 214.122 25.842C214.05 26.034 213.951 26.19 213.825 26.31C213.705 26.43 213.558 26.517 213.384 26.571C213.216 26.625 213.033 26.652 212.835 26.652C212.637 26.652 212.451 26.625 212.277 26.571C212.109 26.517 211.962 26.43 211.836 26.31C211.716 26.19 211.62 26.034 211.548 25.842C211.476 25.644 211.44 25.404 211.44 25.122ZM212.106 25.122C212.106 25.482 212.169 25.74 212.295 25.896C212.427 26.052 212.607 26.13 212.835 26.13C212.949 26.13 213.051 26.115 213.141 26.085C213.231 26.049 213.306 25.995 213.366 25.923C213.432 25.845 213.48 25.743 213.51 25.617C213.546 25.485 213.564 25.32 213.564 25.122C213.564 24.924 213.546 24.762 213.51 24.636C213.48 24.504 213.432 24.402 213.366 24.33C213.306 24.252 213.231 24.198 213.141 24.168C213.051 24.132 212.949 24.114 212.835 24.114C212.607 24.114 212.427 24.186 212.295 24.33C212.169 24.468 212.106 24.732 212.106 25.122ZM214.653 28.461C214.653 28.191 214.689 27.96 214.761 27.768C214.833 27.576 214.929 27.417 215.049 27.291C215.175 27.165 215.322 27.075 215.49 27.021C215.664 26.961 215.85 26.931 216.048 26.931C216.246 26.931 216.429 26.958 216.597 27.012C216.771 27.066 216.918 27.153 217.038 27.273C217.164 27.393 217.263 27.552 217.335 27.75C217.407 27.942 217.443 28.179 217.443 28.461C217.443 28.743 217.407 28.983 217.335 29.181C217.263 29.373 217.164 29.529 217.038 29.649C216.918 29.769 216.771 29.856 216.597 29.91C216.429 29.964 216.246 29.991 216.048 29.991C215.85 29.991 215.664 29.964 215.49 29.91C215.322 29.856 215.175 29.769 215.049 29.649C214.929 29.529 214.833 29.373 214.761 29.181C214.689 28.983 214.653 28.743 214.653 28.461ZM215.319 28.461C215.319 28.821 215.382 29.079 215.508 29.235C215.64 29.391 215.82 29.469 216.048 29.469C216.162 29.469 216.264 29.454 216.354 29.424C216.444 29.388 216.519 29.334 216.579 29.262C216.645 29.184 216.693 29.082 216.723 28.956C216.759 28.824 216.777 28.659 216.777 28.461C216.777 28.263 216.759 28.101 216.723 27.975C216.693 27.843 216.645 27.741 216.579 27.669C216.519 27.591 216.444 27.537 216.354 27.507C216.264 27.471 216.162 27.453 216.048 27.453C215.82 27.453 215.64 27.525 215.508 27.669C215.382 27.807 215.319 28.071 215.319 28.461ZM216.543 23.583L216.984 23.925L212.367 30.108L211.917 29.757L216.543 23.583Z" fill="black"/>
<path d="M240 19L236 23L232 19" stroke="#73879B" stroke-width="1.3" stroke-linecap="round" stroke-linejoin="round"/>
</g>
<rect width="320" height="38" transform="translate(0 42)" fill="#F1F1F1"/>
<path fill-rule="evenodd" clip-rule="evenodd" d="M24 56C24 55.7348 23.8946 55.4804 23.7071 55.2929C23.5196 55.1054 23.2652 55 23 55H11C10.7348 55 10.4804 55.1054 10.2929 55.2929C10.1054 55.4804 10 55.7348 10 56C10 56.2652 10.1054 56.5196 10.2929 56.7071C10.4804 56.8946 10.7348 57 11 57H23C23.2652 57 23.5196 56.8946 23.7071 56.7071C23.8946 56.5196 24 56.2652 24 56Z" fill="#28323C"/>
<path fill-rule="evenodd" clip-rule="evenodd" d="M24 61C24 60.7348 23.8946 60.4804 23.7071 60.2929C23.5196 60.1054 23.2652 60 23 60H11C10.7348 60 10.4804 60.1054 10.2929 60.2929C10.1054 60.4804 10 60.7348 10 61C10 61.2652 10.1054 61.5196 10.2929 61.7071C10.4804 61.8946 10.7348 62 11 62H23C23.2652 62 23.5196 61.8946 23.7071 61.7071C23.8946 61.5196 24 61.2652 24 61Z" fill="#28323C"/>
<path fill-rule="evenodd" clip-rule="evenodd" d="M18 66C18 65.7348 17.8946 65.4804 17.7071 65.2929C17.5196 65.1054 17.2652 65 17 65H11C10.7348 65 10.4804 65.1054 10.2929 65.2929C10.1054 65.4804 10 65.7348 10 66C10 66.2652 10.1054 66.5196 10.2929 66.7071C10.4804 66.8946 10.7348 67 11 67H17C17.2652 67 17.5196 66.8946 17.7071 66.7071C17.8946 66.5196 18 66.2652 18 66Z" fill="#28323C"/>
</g>
<defs>
<clipPath id="clip0">
<rect width="320" height="1148" fill="white"/>
</clipPath>
<clipPath id="clip1">
<rect width="87" height="20" fill="white" transform="matrix(1 0 0 -1 54 31)"/>
</clipPath>
<clipPath id="clip2">
<rect width="87" height="20" fill="white" transform="matrix(1 0 0 -1 154 31)"/>
</clipPath>
</defs>
</svg>
