<svg width="20" height="20" viewBox="0 0 20 20" fill="none" xmlns="http://www.w3.org/2000/svg">
<path d="M3.27415 7.15293C1.7224 9.8457 2.70888 13.9321 4.42486 16.4099C5.28141 17.6486 6.14861 18.7606 7.33639 18.7606C7.35877 18.7606 7.38122 18.7601 7.40421 18.7592C7.96226 18.737 8.36553 18.5652 8.75544 18.3991C9.19319 18.2126 9.64593 18.0197 10.3561 18.0197C11.0316 18.0197 11.4628 18.2063 11.8797 18.3867C12.2906 18.5645 12.7139 18.7484 13.3393 18.7367C14.6772 18.7118 15.4986 17.5119 16.2234 16.4534C16.9797 15.3482 17.3591 14.2751 17.4871 13.865L17.4922 13.8487C17.5166 13.7758 17.4822 13.6963 17.4123 13.6642C17.4104 13.6633 17.4033 13.6603 17.4013 13.6595C17.1657 13.5632 15.099 12.6463 15.0773 10.1474C15.0571 8.11714 16.6277 7.04202 16.9427 6.84715L16.9574 6.83801C16.9915 6.81604 17.0152 6.7812 17.0233 6.74136C17.0314 6.70158 17.0229 6.66017 17.0001 6.62671C15.916 5.04024 14.2544 4.80114 13.5855 4.77238C13.4884 4.76269 13.3882 4.75781 13.2876 4.75781C12.5018 4.75781 11.7492 5.05456 11.1445 5.293C10.7271 5.45759 10.3665 5.59974 10.1179 5.59974C9.83844 5.59974 9.47586 5.45584 9.05598 5.28926C8.4945 5.06642 7.85809 4.8139 7.18437 4.8139C7.1683 4.8139 7.15247 4.81408 7.13689 4.81438C5.57039 4.83743 4.0902 5.73364 3.27415 7.15293Z" fill="#A5B4C3"/>
<path d="M13.5868 0.406366C12.6382 0.445001 11.5003 1.02893 10.8201 1.8256C10.2421 2.49522 9.67742 3.61169 9.82619 4.73706C9.83552 4.80747 9.89281 4.86182 9.96364 4.86729C10.0277 4.87229 10.093 4.87481 10.1581 4.87487C11.0857 4.87487 12.0863 4.36172 12.7697 3.53544C13.4889 2.66295 13.8525 1.54323 13.7425 0.540267C13.7339 0.461671 13.6647 0.403296 13.5868 0.406366Z" fill="#A5B4C3"/>
</svg>
