<svg width="16" height="17" viewBox="0 0 16 17" fill="none" xmlns="http://www.w3.org/2000/svg">
<path d="M8 8.50065C9.84095 8.50065 11.3333 7.00827 11.3333 5.16732C11.3333 3.32637 9.84095 1.83398 8 1.83398C6.15905 1.83398 4.66666 3.32637 4.66666 5.16732C4.66666 7.00827 6.15905 8.50065 8 8.50065Z" fill="#DCD7FF"/>
<path d="M8 9.61133C6.67437 9.6128 5.40345 10.1401 4.46609 11.0774C3.52873 12.0148 3.00147 13.2857 3 14.6113C3 14.7587 3.05853 14.9 3.16272 15.0042C3.26691 15.1084 3.40821 15.1669 3.55556 15.1669H12.4444C12.5918 15.1669 12.7331 15.1084 12.8373 15.0042C12.9415 14.9 13 14.7587 13 14.6113C12.9985 13.2857 12.4713 12.0148 11.5339 11.0774C10.5965 10.1401 9.32563 9.6128 8 9.61133Z" fill="#DCD7FF"/>
</svg>
