<svg width="16" height="17" viewBox="0 0 16 17" fill="none" xmlns="http://www.w3.org/2000/svg">
<path d="M14.4953 8.72142L8.49534 2.05475C8.24267 1.77342 7.75734 1.77342 7.50467 2.05475L1.50467 8.72142C1.41831 8.81715 1.36162 8.93591 1.3415 9.06326C1.32138 9.19061 1.3387 9.32106 1.39134 9.43875C1.49801 9.67942 1.73667 9.83408 2.00001 9.83408H3.33334V14.5008C3.33334 14.6776 3.40358 14.8471 3.5286 14.9722C3.65363 15.0972 3.8232 15.1674 4.00001 15.1674H6.00001C6.17682 15.1674 6.34639 15.0972 6.47141 14.9722C6.59644 14.8471 6.66667 14.6776 6.66667 14.5008V11.8341H9.33334V14.5008C9.33334 14.6776 9.40358 14.8471 9.5286 14.9722C9.65363 15.0972 9.8232 15.1674 10 15.1674H12C12.1768 15.1674 12.3464 15.0972 12.4714 14.9722C12.5964 14.8471 12.6667 14.6776 12.6667 14.5008V9.83408H14C14.1291 9.83463 14.2556 9.79761 14.364 9.72751C14.4725 9.65742 14.5582 9.5573 14.6107 9.43935C14.6632 9.32139 14.6802 9.19071 14.6598 9.06323C14.6393 8.93576 14.5822 8.81699 14.4953 8.72142Z" fill="#A5B4C3"/>
</svg>
