<svg width="16" height="17" viewBox="0 0 16 17" fill="none" xmlns="http://www.w3.org/2000/svg">
<path d="M11.8889 4.05469H4.11111C3.37467 4.05557 2.66865 4.34851 2.1479 4.86925C1.62716 5.39 1.33422 6.09602 1.33334 6.83247L1.33334 10.1658C1.33422 10.9022 1.62716 11.6083 2.1479 12.129C2.66865 12.6498 3.37467 12.9427 4.11111 12.9436H11.8889C12.6253 12.9427 13.3314 12.6498 13.8521 12.129C14.3728 11.6083 14.6658 10.9022 14.6667 10.1658V6.83247C14.6658 6.09602 14.3728 5.39 13.8521 4.86925C13.3314 4.34851 12.6253 4.05557 11.8889 4.05469ZM3.55556 11.2769C3.44568 11.2769 3.33827 11.2443 3.24691 11.1833C3.15555 11.1222 3.08434 11.0355 3.04229 10.934C3.00024 10.8324 2.98924 10.7207 3.01068 10.613C3.03211 10.5052 3.08503 10.4062 3.16272 10.3285C3.24042 10.2508 3.33941 10.1979 3.44717 10.1765C3.55494 10.155 3.66665 10.166 3.76816 10.2081C3.86967 10.2501 3.95644 10.3213 4.01749 10.4127C4.07853 10.5041 4.11111 10.6115 4.11111 10.7214C4.11111 10.8687 4.05258 11.01 3.9484 11.1142C3.84421 11.2184 3.7029 11.2769 3.55556 11.2769ZM3.55556 6.83247C3.44568 6.83247 3.33827 6.79988 3.24691 6.73884C3.15555 6.67779 3.08434 6.59103 3.04229 6.48951C3.00024 6.388 2.98924 6.27629 3.01068 6.16853C3.03211 6.06076 3.08503 5.96177 3.16272 5.88407C3.24042 5.80638 3.33941 5.75347 3.44717 5.73203C3.55494 5.71059 3.66665 5.72159 3.76816 5.76364C3.86967 5.80569 3.95644 5.8769 4.01749 5.96826C4.07853 6.05962 4.11111 6.16703 4.11111 6.27691C4.11111 6.42425 4.05258 6.56556 3.9484 6.66975C3.84421 6.77393 3.7029 6.83247 3.55556 6.83247ZM8 10.7214C7.56049 10.7214 7.13085 10.591 6.7654 10.3468C6.39996 10.1027 6.11513 9.7556 5.94694 9.34954C5.77874 8.94348 5.73474 8.49667 5.82048 8.0656C5.90622 7.63453 6.11787 7.23857 6.42865 6.92778C6.73944 6.617 7.1354 6.40535 7.56647 6.31961C7.99754 6.23386 8.44435 6.27787 8.85041 6.44607C9.25647 6.61426 9.60353 6.89909 9.84771 7.26453C10.0919 7.62997 10.2222 8.05962 10.2222 8.49913C10.2222 9.0885 9.9881 9.65373 9.57135 10.0705C9.1546 10.4872 8.58937 10.7214 8 10.7214ZM12.4444 11.2769C12.3346 11.2769 12.2272 11.2443 12.1358 11.1833C12.0444 11.1222 11.9732 11.0355 11.9312 10.934C11.8891 10.8324 11.8781 10.7207 11.8996 10.613C11.921 10.5052 11.9739 10.4062 12.0516 10.3285C12.1293 10.2508 12.2283 10.1979 12.3361 10.1765C12.4438 10.155 12.5555 10.166 12.657 10.2081C12.7586 10.2501 12.8453 10.3213 12.9064 10.4127C12.9674 10.5041 13 10.6115 13 10.7214C13 10.8687 12.9415 11.01 12.8373 11.1142C12.7331 11.2184 12.5918 11.2769 12.4444 11.2769ZM12.4444 6.83247C12.3346 6.83247 12.2272 6.79988 12.1358 6.73884C12.0444 6.67779 11.9732 6.59103 11.9312 6.48951C11.8891 6.388 11.8781 6.27629 11.8996 6.16853C11.921 6.06076 11.9739 5.96177 12.0516 5.88407C12.1293 5.80638 12.2283 5.75347 12.3361 5.73203C12.4438 5.71059 12.5555 5.72159 12.657 5.76364C12.7586 5.80569 12.8453 5.8769 12.9064 5.96826C12.9674 6.05962 13 6.16703 13 6.27691C13 6.42425 12.9415 6.56556 12.8373 6.66975C12.7331 6.77393 12.5918 6.83247 12.4444 6.83247ZM9.11111 8.49913C9.11111 8.71889 9.04595 8.93371 8.92386 9.11643C8.80177 9.29915 8.62824 9.44157 8.42521 9.52567C8.22218 9.60976 7.99877 9.63177 7.78324 9.58889C7.5677 9.54602 7.36972 9.4402 7.21433 9.28481C7.05894 9.12941 6.95311 8.93143 6.91024 8.7159C6.86737 8.50036 6.88937 8.27696 6.97347 8.07393C7.05757 7.8709 7.19998 7.69737 7.3827 7.57528C7.56542 7.45319 7.78025 7.38802 8 7.38802C8.29469 7.38802 8.5773 7.50508 8.78568 7.71346C8.99405 7.92183 9.11111 8.20445 9.11111 8.49913Z" fill="#A5B4C3"/>
</svg>
