<svg width="20" height="20" viewBox="0 0 20 20" fill="none" xmlns="http://www.w3.org/2000/svg">
<path fill-rule="evenodd" clip-rule="evenodd" d="M16.3333 6.02261C17.4379 6.02261 18.3333 6.91804 18.3333 8.02261V10.1893V12.462V14.6287C18.3333 15.7332 17.4379 16.6287 16.3333 16.6287H3.66663C2.56206 16.6287 1.66663 15.7332 1.66663 14.6287V5.37109C1.66663 4.26652 2.56206 3.37109 3.66663 3.37109H13.7878C14.6246 3.37109 15.303 4.04945 15.303 4.88625H4.12875C3.81495 4.88625 3.56057 5.14063 3.56057 5.45443C3.56057 5.76823 3.81495 6.02261 4.12875 6.02261H16.3333ZM18.3331 10.1893H15.303C14.6754 10.1893 14.1666 10.698 14.1666 11.3256C14.1666 11.9532 14.6754 12.462 15.303 12.462H18.3331V13.5984H15.3028C14.0476 13.5984 13.03 12.5808 13.03 11.3257C13.03 10.0705 14.0476 9.05293 15.3028 9.05293H18.3331V10.1893Z" fill="#73879B"/>
</svg>
