<svg width="16" height="17" viewBox="0 0 16 17" fill="none" xmlns="http://www.w3.org/2000/svg">
<path d="M11.6561 3.02299L8.17555 1.86245C8.06159 1.8245 7.9384 1.8245 7.82445 1.86245L4.34394 3.02299C3.79057 3.20681 3.30919 3.56035 2.96821 4.03337C2.62723 4.50639 2.44399 5.07484 2.44453 5.65795V8.50068C2.44453 12.7023 7.55556 15.0228 7.77445 15.1195C7.84546 15.151 7.9223 15.1673 8 15.1673C8.0777 15.1673 8.15454 15.151 8.22555 15.1195C8.44444 15.0228 13.5555 12.7023 13.5555 8.50068V5.65795C13.556 5.07484 13.3728 4.50639 13.0318 4.03337C12.6908 3.56035 12.2094 3.20681 11.6561 3.02299ZM9.66664 8.50068H8.55555V9.61178C8.55555 9.75912 8.49701 9.90042 8.39283 10.0046C8.28864 10.1088 8.14734 10.1673 8 10.1673C7.85266 10.1673 7.71135 10.1088 7.60717 10.0046C7.50298 9.90042 7.44445 9.75912 7.44445 9.61178V8.50068H6.33336C6.18602 8.50068 6.04471 8.44215 5.94053 8.33797C5.83634 8.23378 5.77781 8.09248 5.77781 7.94514C5.77781 7.7978 5.83634 7.65649 5.94053 7.55231C6.04471 7.44812 6.18602 7.38959 6.33336 7.38959H7.44445V6.27849C7.44445 6.13115 7.50298 5.98985 7.60717 5.88566C7.71135 5.78148 7.85266 5.72295 8 5.72295C8.14734 5.72295 8.28864 5.78148 8.39283 5.88566C8.49701 5.98985 8.55555 6.13115 8.55555 6.27849V7.38959H9.66664C9.81398 7.38959 9.95529 7.44812 10.0595 7.55231C10.1637 7.65649 10.2222 7.7978 10.2222 7.94514C10.2222 8.09248 10.1637 8.23378 10.0595 8.33797C9.95529 8.44215 9.81398 8.50068 9.66664 8.50068Z" fill="#A5B4C3"/>
</svg>
