<svg width="20" height="20" viewBox="0 0 20 20" fill="none" xmlns="http://www.w3.org/2000/svg">
<path d="M14.6357 0.837799L12.3214 0.833984C9.72122 0.833984 8.0409 2.60489 8.0409 5.34584V7.42611H5.71389C5.51281 7.42611 5.34998 7.59357 5.34998 7.80013V10.8142C5.34998 11.0208 5.51299 11.188 5.71389 11.188H8.0409V18.7935C8.0409 19 8.20373 19.1673 8.40482 19.1673H11.4409C11.642 19.1673 11.8048 18.9999 11.8048 18.7935V11.188H14.5256C14.7267 11.188 14.8896 11.0208 14.8896 10.8142L14.8907 7.80013C14.8907 7.70095 14.8522 7.60597 14.7841 7.53578C14.716 7.46559 14.6231 7.42611 14.5266 7.42611H11.8048V5.66264C11.8048 4.81505 12.0014 4.38476 13.0763 4.38476L14.6354 4.38419C14.8363 4.38419 14.9991 4.21673 14.9991 4.01037V1.21163C14.9991 1.00545 14.8364 0.83818 14.6357 0.837799Z" fill="#73879B"/>
</svg>
