<svg width="26" height="24" viewBox="0 0 26 24" fill="none" xmlns="http://www.w3.org/2000/svg">
<path d="M23.7274 13.5957L21.9841 18.7748H19.943L18.1583 13.5957H23.7274Z" fill="#D7E1EB"/>
<path d="M23.7275 5.8269L21.9843 11.0059H13.608L11.8628 5.8269H23.7275Z" fill="#D7E1EB"/>
<path d="M22.5987 23.9537L17.9697 23.9515L13.6077 11.006L11.8625 5.82699L10.1192 11.006L5.75522 23.9537H1.12433L5.58324 11.006L7.36797 5.82699L9.37409 0H14.3509L16.3589 5.82699L18.1417 11.006L22.5987 23.9537Z" fill="#A5B4C3"/>
<path d="M11.8628 5.8269L10.1195 11.0059H1.74522L0 5.8269H11.8628Z" fill="#D7E1EB"/>
<path d="M14.4796 13.5957L16.2248 18.7748H1.74522L0 13.5957H14.4796Z" fill="#D7E1EB"/>
</svg>
