<svg width="16" height="17" viewBox="0 0 16 17" fill="none" xmlns="http://www.w3.org/2000/svg">
<path d="M13.6477 12.4103C13.4438 12.8857 13.1918 13.3391 12.8957 13.7634C12.5001 14.3283 12.1753 14.7187 11.9263 14.936C11.5396 15.291 11.1242 15.4737 10.68 15.484C10.3618 15.484 9.97734 15.3934 9.52949 15.2093C9.08018 15.0259 8.66769 14.936 8.28982 14.936C7.89428 14.936 7.47001 15.0259 7.01554 15.2093C6.5618 15.3934 6.19498 15.4899 5.91434 15.4988C5.48934 15.5172 5.06433 15.3301 4.64079 14.936C4.37047 14.7003 4.03237 14.2952 3.62652 13.7221C3.19193 13.1115 2.83469 12.4007 2.55479 11.5927C2.255 10.7183 2.10474 9.87274 2.10474 9.05366C2.10474 8.11599 2.3073 7.30649 2.71315 6.62883C3.02012 6.09662 3.45898 5.65244 3.98744 5.33907C4.50855 5.02652 5.10343 4.85822 5.71105 4.85145C6.04988 4.85145 6.49403 4.95605 7.04426 5.16229C7.59449 5.36853 7.94805 5.47313 8.10199 5.47313C8.21838 5.47313 8.6095 5.35012 9.27537 5.10631C9.90368 4.88018 10.434 4.78663 10.8686 4.82346C12.0471 4.91848 12.9318 5.38253 13.5203 6.21929C12.467 6.85791 11.9462 7.75138 11.9565 8.89824C11.9654 9.79172 12.2902 10.5349 12.9266 11.1249C13.208 11.3942 13.5363 11.6096 13.8952 11.7606C13.8171 11.9867 13.7346 12.2026 13.6477 12.4103ZM10.9467 1.78064C10.9467 2.48039 10.6903 3.13448 10.1814 3.73921C9.56559 4.45812 8.82164 4.87429 8.01508 4.80873C8.00453 4.72074 7.99936 4.63218 7.99961 4.54356C7.99961 3.87106 8.2913 3.15216 8.81206 2.56363C9.07134 2.26605 9.40133 2.01782 9.80129 1.82041C10.2005 1.62596 10.5777 1.51841 10.9327 1.5C10.9423 1.59428 10.9467 1.68783 10.9467 1.78064Z" fill="white"/>
</svg>
