<svg width="16" height="16" viewBox="0 0 16 16" fill="none" xmlns="http://www.w3.org/2000/svg">
<g clip-path="url(#clip0)">
<path d="M12.3587 12.4713L15.4167 9.41401C15.7905 9.03835 16.0003 8.52996 16.0003 8.00001C16.0003 7.47006 15.7905 6.96167 15.4167 6.58601L12.3587 3.52868C12.2329 3.40724 12.0645 3.34004 11.8897 3.34156C11.7149 3.34308 11.5477 3.41319 11.4241 3.5368C11.3005 3.6604 11.2304 3.82761 11.2289 4.00241C11.2274 4.17721 11.2946 4.34561 11.416 4.47134L14.2773 7.33334H0.666667C0.489856 7.33334 0.320286 7.40358 0.195262 7.5286C0.0702379 7.65363 0 7.8232 0 8.00001C0 8.17682 0.0702379 8.34639 0.195262 8.47141C0.320286 8.59644 0.489856 8.66668 0.666667 8.66668H14.278L11.416 11.5287C11.3523 11.5902 11.3015 11.6637 11.2666 11.7451C11.2317 11.8264 11.2133 11.9139 11.2125 12.0024C11.2117 12.0909 11.2286 12.1787 11.2621 12.2606C11.2956 12.3426 11.3451 12.417 11.4077 12.4796C11.4703 12.5422 11.5448 12.5917 11.6267 12.6252C11.7086 12.6587 11.7964 12.6756 11.8849 12.6748C11.9735 12.6741 12.0609 12.6557 12.1423 12.6207C12.2236 12.5858 12.2972 12.535 12.3587 12.4713Z" fill="#73879B"/>
</g>
<defs>
<clipPath id="clip0">
<rect width="16" height="16" fill="white"/>
</clipPath>
</defs>
</svg>
