<svg width="24" height="24" viewBox="0 0 24 24" fill="none" xmlns="http://www.w3.org/2000/svg">
<path d="M8.53847 2V4.30769H5.46155V19.6923H8.53847V22H10.0769V19.6923H11.6154V22H13.1539V19.6923H14.3077C16.6362 19.6923 18.5385 17.79 18.5385 15.4615C18.5385 13.86 17.6462 12.4538 16.3269 11.7354C16.9743 11.1671 17.4332 10.4151 17.6427 9.57954C17.8521 8.74397 17.8021 7.86444 17.4994 7.05798C17.1966 6.25152 16.6554 5.55638 15.9479 5.06507C15.2403 4.57376 14.3999 4.30959 13.5385 4.30769H13.1539V2H11.6154V4.30769H10.0769V2H8.53847ZM7.00001 5.84615H13.5385C15.0346 5.84615 16.2308 7.04231 16.2308 8.53846C16.2308 10.0346 15.0346 11.2308 13.5385 11.2308H7.00001V5.84615ZM7.00001 12.7692H14.3077C15.8039 12.7692 17 13.9654 17 15.4615C17 16.9577 15.8039 18.1538 14.3077 18.1538H7.00001V12.7692Z" fill="#28323C"/>
</svg>
