<svg width="20" height="20" viewBox="0 0 20 20" fill="none" xmlns="http://www.w3.org/2000/svg">
<path d="M17.0679 4.97804L17.069 4.9793C17.1941 5.12876 17.2848 5.30391 17.3347 5.49233L18.0597 5.30045L17.3347 5.49234C17.3845 5.68076 17.3923 5.87784 17.3576 6.06962L17.3574 6.0704L16.8123 9.09401L16.8123 9.09404C16.6991 9.72216 16.3687 10.2905 15.879 10.6998C15.3893 11.1092 14.7713 11.3334 14.1331 11.3333H14.133H5.85524H5.06599L4.26234 4.50001H4.81705L16.0448 4.50001L16.0457 4.5C16.2408 4.49977 16.4335 4.54247 16.6101 4.62509C16.7868 4.70771 16.9431 4.82821 17.0679 4.97804Z" stroke="#323C46" stroke-width="1.5"/>
<path d="M7.37116 16.9444C7.37116 17.2973 7.08512 17.5833 6.73227 17.5833C6.37942 17.5833 6.09338 17.2973 6.09338 16.9444C6.09338 16.5916 6.37942 16.3055 6.73227 16.3055C7.08512 16.3055 7.37116 16.5916 7.37116 16.9444Z" stroke="#323C46" stroke-width="1.5"/>
<path d="M14.3156 16.9444C14.3156 17.2973 14.0296 17.5833 13.6767 17.5833C13.3239 17.5833 13.0378 17.2973 13.0378 16.9444C13.0378 16.5916 13.3239 16.3055 13.6767 16.3055C14.0296 16.3055 14.3156 16.5916 14.3156 16.9444Z" stroke="#323C46" stroke-width="1.5"/>
</svg>
