<svg width="18" height="18" viewBox="0 0 18 18" fill="none" xmlns="http://www.w3.org/2000/svg">
<path d="M4.05704 3.56367L4.125 3.39688L4.19297 3.56367L6.24542 8.60069C6.24544 8.60074 6.24545 8.60078 6.24547 8.60082C6.24848 8.60828 6.25001 8.61624 6.25 8.62428V8.625C6.25 8.90406 6.19504 9.18039 6.08825 9.4382C5.98145 9.69602 5.82493 9.93028 5.6276 10.1276C5.43028 10.3249 5.19602 10.4815 4.9382 10.5882C4.68039 10.695 4.40406 10.75 4.125 10.75C3.84594 10.75 3.56961 10.695 3.3118 10.5882C3.05398 10.4815 2.81972 10.3249 2.6224 10.1276C2.42507 9.93028 2.26855 9.69602 2.16176 9.4382C2.05497 9.18039 2 8.90406 2 8.625L2 8.62428C1.99999 8.61626 2.00152 8.60832 2.0045 8.60089C2.00453 8.60082 2.00456 8.60076 2.00458 8.60069L4.05704 3.56367ZM4.33765 2.875H3.91235H3.594H2.8125C2.79592 2.875 2.78003 2.86842 2.76831 2.85669C2.75659 2.84497 2.75 2.82908 2.75 2.8125C2.75 2.79592 2.75659 2.78003 2.76831 2.76831C2.78003 2.75658 2.79592 2.75 2.8125 2.75H15.1875C15.2041 2.75 15.22 2.75659 15.2317 2.76831C15.2434 2.78003 15.25 2.79592 15.25 2.8125C15.25 2.82908 15.2434 2.84497 15.2317 2.85669C15.22 2.86841 15.2041 2.875 15.1875 2.875H14.406H14.0877H13.6623H13.344H9.5625H9.0625V3.375V12.375V12.875H9.5625H12.5625C12.8774 12.875 13.1795 13.0001 13.4022 13.2228C13.6249 13.4455 13.75 13.7476 13.75 14.0625C13.75 14.3774 13.6249 14.6795 13.4022 14.9022C13.1795 15.1249 12.8774 15.25 12.5625 15.25H5.43975C5.12481 15.25 4.82276 15.1249 4.60006 14.9022C4.37736 14.6795 4.25225 14.3774 4.25225 14.0625C4.25225 13.7476 4.37736 13.4455 4.60006 13.2228C4.82276 13.0001 5.12481 12.875 5.43975 12.875H8.4375H8.9375V12.375V3.375V2.875H8.4375H4.656H4.33765ZM13.807 3.56367L13.875 3.39688L13.943 3.56367L15.9954 8.60069C15.9954 8.60077 15.9955 8.60084 15.9955 8.60091C15.9985 8.60834 16 8.61627 16 8.62427V8.625C16 9.18859 15.7761 9.72909 15.3776 10.1276C14.9791 10.5261 14.4386 10.75 13.875 10.75C13.3114 10.75 12.7709 10.5261 12.3724 10.1276C11.9739 9.72909 11.75 9.18859 11.75 8.625L11.75 8.62427C11.75 8.61627 11.7515 8.60834 11.7545 8.60091C11.7545 8.60084 11.7546 8.60077 11.7546 8.60069L13.807 3.56367ZM15.7312 10.4812C16.2234 9.98887 16.5 9.32119 16.5 8.625L11.2913 8.41275C11.2639 8.48017 11.2499 8.55225 11.25 8.625C11.25 9.32119 11.5266 9.98887 12.0188 10.4812C12.5111 10.9734 13.1788 11.25 13.875 11.25C14.5712 11.25 15.2389 10.9734 15.7312 10.4812ZM4.58803 4.8648L4.125 3.72862L3.66197 4.8648L2.43572 7.8738L2.15506 8.5625H2.89875H5.35125H6.09494L5.81428 7.8738L4.58803 4.8648ZM12.1857 7.8738L11.9051 8.5625H12.6488H15.1013H15.8449L15.5643 7.8738L14.338 4.8648L13.875 3.72862L13.412 4.8648L12.1857 7.8738Z" stroke="#323C46"/>
</svg>
