<svg width="20" height="20" viewBox="0 0 20 20" fill="none" xmlns="http://www.w3.org/2000/svg">
<path d="M16.6729 15.1464L11.5265 10L16.6729 4.85358C17.109 4.41745 17.109 3.76324 16.6729 3.3271C16.2368 2.89097 15.5826 2.89097 15.1464 3.3271L10 8.47352L4.85358 3.3271C4.41745 2.89097 3.76324 2.89097 3.3271 3.3271C2.89097 3.76324 2.89097 4.41745 3.3271 4.85358L8.47352 10L3.3271 15.1464C2.89097 15.5826 2.89097 16.2368 3.3271 16.6729C3.76324 17.109 4.41745 17.109 4.85358 16.6729L10 11.5265L15.1464 16.6729C15.5826 17.109 16.2368 17.109 16.6729 16.6729C17.109 16.2368 17.0654 15.5389 16.6729 15.1464Z" fill="#323C46"/>
</svg>
