<svg width="24" height="25" viewBox="0 0 24 25" fill="none" xmlns="http://www.w3.org/2000/svg">
<path d="M17.6838 15.9731C17.6838 12.4231 14.7761 12.0185 12.44 11.6938C9.89384 11.34 8.45307 11.0323 8.45307 8.84C8.45307 7 10.3815 6.34615 12.0331 6.34615C12.8561 6.31957 13.6737 6.489 14.4184 6.84048C15.163 7.19196 15.8135 7.71542 16.3161 8.36769L17.5131 7.40154C16.9748 6.70936 16.305 6.1304 15.5423 5.69793C14.7795 5.26546 13.9388 4.98801 13.0685 4.88154V2.5H11.53V4.82462C8.74922 4.99385 6.91461 6.56308 6.91461 8.84C6.91461 12.4785 9.86076 12.8885 12.2277 13.2169C14.73 13.5654 16.1454 13.8646 16.1454 15.9731C16.1454 18.3054 13.7354 18.6538 12.2992 18.6538C9.66076 18.6538 8.54692 17.9123 7.51307 16.6323L6.31615 17.5985C6.92596 18.4021 7.71469 19.0525 8.61974 19.498C9.52478 19.9436 10.5212 20.1721 11.53 20.1654V22.5H13.0685V20.1577C15.9346 19.9238 17.6838 18.3677 17.6838 15.9731Z" fill="#28323C"/>
</svg>
