<svg width="20" height="20" viewBox="0 0 20 20" fill="none" xmlns="http://www.w3.org/2000/svg">
<path d="M10 7.80786C9.71208 7.80786 9.42694 7.86458 9.16089 7.97478C8.89485 8.08498 8.65312 8.2465 8.4495 8.45012C8.24588 8.65374 8.08436 8.89547 7.97417 9.16151C7.86397 9.42755 7.80725 9.71269 7.80725 10.0007C7.80725 10.2886 7.86397 10.5738 7.97417 10.8398C8.08436 11.1058 8.24588 11.3476 8.4495 11.5512C8.65312 11.7548 8.89485 11.9163 9.16089 12.0265C9.42694 12.1367 9.71208 12.1934 10 12.1934C10.5816 12.1933 11.1393 11.9622 11.5504 11.5508C11.9616 11.1395 12.1925 10.5817 12.1923 10.0002C12.1922 9.41859 11.961 8.8609 11.5497 8.44976C11.1384 8.03863 10.5806 7.80773 9.99904 7.80786H10ZM10 5.21757C10.2879 5.21743 10.5729 5.16061 10.8387 5.05034C11.1046 4.94008 11.3461 4.77852 11.5496 4.5749C11.753 4.37128 11.9143 4.12959 12.0244 3.86362C12.1344 3.59765 12.191 3.31261 12.1908 3.02478C12.1907 2.73695 12.1339 2.45196 12.0236 2.18609C11.9133 1.92022 11.7518 1.67867 11.5482 1.47524C11.3445 1.27181 11.1029 1.11047 10.8369 1.00044C10.5709 0.890417 10.2859 0.833854 9.99804 0.833985C9.41675 0.834249 8.85936 1.06542 8.44851 1.47665C8.03765 1.88788 7.80699 2.44547 7.80725 3.02677C7.80752 3.60807 8.03869 4.16546 8.44992 4.57631C8.86114 4.98716 9.41874 5.21783 10 5.21757ZM10 14.7817C9.41848 14.7817 8.86073 15.0128 8.4495 15.424C8.03828 15.8352 7.80725 16.393 7.80725 16.9745C7.80725 17.5561 8.03828 18.1138 8.4495 18.5251C8.86073 18.9363 9.41848 19.1673 10 19.1673C10.5816 19.1673 11.1393 18.9363 11.5506 18.5251C11.9618 18.1138 12.1928 17.5561 12.1928 16.9745C12.1928 16.393 11.9618 15.8352 11.5506 15.424C11.1393 15.0128 10.5816 14.7817 10 14.7817Z" fill="#73879B"/>
</svg>
