<svg width="24" height="24" viewBox="0 0 24 24" fill="none" xmlns="http://www.w3.org/2000/svg">
<path d="M22 3.76V20.24C22 20.72 21.8267 21.1333 21.48 21.48C21.1333 21.8267 20.72 22 20.24 22H3.76C3.28 22 2.86667 21.8267 2.52 21.48C2.17333 21.1333 2 20.72 2 20.24V3.76C2 3.28 2.17333 2.86667 2.52 2.52C2.86667 2.17333 3.28 2 3.76 2H20.24C20.72 2 21.1333 2.17333 21.48 2.52C21.8267 2.86667 22 3.28 22 3.76ZM18.26 6.96L18.66 4.6C18.0867 4.4 17.1333 4.3 15.8 4.3C14.7467 4.3 13.9267 4.68666 13.34 5.46C12.9933 5.91333 12.82 6.70666 12.82 7.84V9.39999H11.24V11.7H12.82V19.7H15.8V11.7H18.16L18.34 9.39999H15.8V7.6C15.8 7.04 16.1933 6.76 16.98 6.76C17.3933 6.76 17.82 6.82666 18.26 6.96Z" fill="#D7E1EB"/>
</svg>
