<svg width="16" height="17" viewBox="0 0 16 17" fill="none" xmlns="http://www.w3.org/2000/svg">
<path d="M6.66663 7.83334H2.66663V2.50001C2.66663 2.3232 2.73686 2.15363 2.86189 2.02861C2.98691 1.90358 3.15648 1.83334 3.33329 1.83334H12.6666C12.8434 1.83334 13.013 1.90358 13.138 2.02861C13.2631 2.15363 13.3333 2.3232 13.3333 2.50001V14.5C13.3333 14.6768 13.2631 14.8464 13.138 14.9714C13.013 15.0964 12.8434 15.1667 12.6666 15.1667H3.33329C3.15648 15.1667 2.98691 15.0964 2.86189 14.9714C2.73686 14.8464 2.66663 14.6768 2.66663 14.5V9.16668H6.66663V11.1667L9.99996 8.50001L6.66663 5.83334V7.83334Z" fill="#323C46"/>
</svg>
