<svg width="130" height="56" viewBox="0 0 130 56" fill="none" xmlns="http://www.w3.org/2000/svg">
<g clip-path="url(#clip0)">
<path fill-rule="evenodd" clip-rule="evenodd" d="M31.6203 24.0643C32.3928 23.2872 32.3928 21.9549 31.6203 21.1777L37.8003 27.395C38.5728 28.1722 38.5728 29.5044 37.8003 30.2816L22.1296 46.0468C21.3571 46.824 20.0328 46.824 19.2603 46.0468L8.33496 35.0556L14.515 28.8383L20.695 35.0556C24.3368 31.3918 27.9785 27.7281 31.6203 24.0643Z" fill="#8778F5"/>
<path fill-rule="evenodd" clip-rule="evenodd" d="M3.56391 27.5389L19.2388 11.9042C20.0116 11.1335 21.3362 11.1335 22.1089 11.9042L26.8555 16.6387L20.6739 22.8045L26.8555 28.9703L20.6739 35.1361L14.4922 28.9703L8.31054 35.1361L3.56391 30.4016C2.7912 29.6309 2.7912 28.3096 3.56391 27.5389Z" fill="#F078DC"/>
<path fill-rule="evenodd" clip-rule="evenodd" d="M26.8725 16.6621L31.6258 21.3904C32.3996 22.1601 32.3996 23.4796 31.6258 24.2493L26.8725 28.9776L20.6821 22.8198L26.8725 16.6621Z" fill="#73C8EB"/>
</g>
<path d="M55.6015 28.0771H53.2345V10.9731H47.2173V8.83876H61.6472V10.9731H55.6015V28.0771Z" fill="#28323C"/>
<path d="M74.736 28.4232C71.9602 28.4232 69.6313 27.5002 67.7491 25.6543C65.886 23.7891 64.9544 21.3951 64.9544 18.4723C64.9544 15.5496 65.886 13.1652 67.7491 11.3193C69.6313 9.45408 71.9602 8.52148 74.736 8.52148C77.7778 8.52148 80.1828 9.79058 81.9509 12.3288L79.9547 13.4536C79.4033 12.6268 78.6619 11.9538 77.7303 11.4346C76.7987 10.9155 75.8006 10.6559 74.736 10.6559C72.6447 10.6559 70.8956 11.3962 69.4887 12.8768C68.1008 14.3382 67.4069 16.2033 67.4069 18.4723C67.4069 20.7413 68.1008 22.6161 69.4887 24.0967C70.8956 25.5581 72.6447 26.2888 74.736 26.2888C75.8006 26.2888 76.7987 26.0388 77.7303 25.5389C78.6619 25.0197 79.4033 24.3371 79.9547 23.491L81.9794 24.6159C80.1353 27.1541 77.7208 28.4232 74.736 28.4232Z" fill="#28323C"/>
<path d="M89.0741 28.0771H86.7071V8.83876H94.3499C96.194 8.83876 97.6484 9.39639 98.7131 10.5117C99.7777 11.6269 100.31 13.0018 100.31 14.6362C100.31 16.2706 99.7682 17.6455 98.6846 18.7608C97.6199 19.876 96.175 20.4337 94.3499 20.4337H89.0741V28.0771ZM94.0647 18.2993C95.1864 18.2993 96.099 17.9628 96.8024 17.2898C97.5058 16.5975 97.8575 15.713 97.8575 14.6362C97.8575 13.5594 97.5058 12.6845 96.8024 12.0115C96.099 11.3193 95.1864 10.9731 94.0647 10.9731H89.0741V18.2993H94.0647Z" fill="#28323C"/>
<path d="M57.5645 47.4778H55.961V40.5644L53.1515 47.4778H52.4662L49.6704 40.5644V47.4778H48.0669V38.1621H50.3282L52.8088 44.2934L55.3031 38.1621H57.5645V47.4778Z" fill="#28323C"/>
<path d="M67.7331 47.4778H65.9103L65.2387 45.6901H61.045L60.3735 47.4778H58.5507L62.1414 38.1621H64.1423L67.7331 47.4778ZM64.7865 44.2515L63.1419 39.8102L61.4973 44.2515H64.7865Z" fill="#28323C"/>
<path d="M75.8033 47.4778H73.9531L71.9248 44.0001H70.335V47.4778H68.7315V38.1621H72.7471C73.6425 38.1621 74.3643 38.4321 74.9125 38.9722C75.4607 39.5122 75.7348 40.2152 75.7348 41.0811C75.7348 41.8632 75.5246 42.4917 75.1043 42.9666C74.684 43.4322 74.1724 43.7161 73.5694 43.8186L75.8033 47.4778ZM72.5278 42.5616C72.9846 42.5616 73.3592 42.4266 73.6516 42.1565C73.944 41.8865 74.0902 41.5281 74.0902 41.0811C74.0902 40.6342 73.944 40.2757 73.6516 40.0057C73.3592 39.7357 72.9846 39.6007 72.5278 39.6007H70.335V42.5616H72.5278Z" fill="#28323C"/>
<path d="M84.7791 47.4778H82.8056L79.7357 43.5532L78.9408 44.5029V47.4778H77.3373V38.1621H78.9408V42.6035L82.5178 38.1621H84.505L80.7909 42.5616L84.7791 47.4778Z" fill="#28323C"/>
<path d="M92.1126 47.4778H85.8494V38.1621H92.1126V39.6007H87.4529V42.0169H92.0166V43.4554H87.4529V46.0392H92.1126V47.4778Z" fill="#28323C"/>
<path d="M97.5418 47.4778H95.9383V39.6007H93.1699V38.1621H100.31V39.6007H97.5418V47.4778Z" fill="#28323C"/>
<defs>
<clipPath id="clip0">
<rect width="35.3952" height="35.3043" fill="white" transform="translate(2.98438 11.3262)"/>
</clipPath>
</defs>
</svg>
