<svg width="239" height="107" viewBox="0 0 239 107" fill="none" xmlns="http://www.w3.org/2000/svg">
<g clip-path="url(#clip0)">
<path fill-rule="evenodd" clip-rule="evenodd" d="M84.9451 39.9771C87.2279 37.6885 87.2279 33.7652 84.9451 31.4766L103.207 49.7854C105.49 52.074 105.49 55.9974 103.207 58.286L56.9002 104.712C54.6175 107.001 50.7043 107.001 48.4216 104.712L16.1373 72.3446L34.3991 54.0357L52.6609 72.3446C63.4223 61.5554 74.1837 50.7663 84.9451 39.9771Z" fill="#8778F5"/>
<path fill-rule="evenodd" clip-rule="evenodd" d="M2.11445 49.7831L48.4211 3.35708C50.7039 1.06847 54.6171 1.06847 56.8998 3.35708L70.9223 17.4157L52.6605 35.7245L70.9223 54.0334L52.6605 72.3423L34.3987 54.0334L16.1369 72.3423L2.11445 58.2837C-0.168276 55.9951 -0.168276 52.0717 2.11445 49.7831Z" fill="#F078DC"/>
<path fill-rule="evenodd" clip-rule="evenodd" d="M70.9217 17.418L84.9441 31.4766C87.2268 33.7652 87.2268 37.6885 84.9441 39.9771L70.9217 54.0357L52.6599 35.7268L70.9217 17.418Z" fill="#73C8EB"/>
</g>
<path d="M135.864 52.5H130.552V14.548H117.048V9.812H149.432V14.548H135.864V52.5ZM178.806 53.268C172.577 53.268 167.35 51.22 163.126 47.124C158.945 42.9853 156.854 37.6733 156.854 31.188C156.854 24.7027 158.945 19.412 163.126 15.316C167.35 11.1773 172.577 9.108 178.806 9.108C185.633 9.108 191.03 11.924 194.998 17.556L190.518 20.052C189.281 18.2173 187.617 16.724 185.526 15.572C183.435 14.42 181.195 13.844 178.806 13.844C174.113 13.844 170.187 15.4867 167.03 18.772C163.915 22.0147 162.358 26.1533 162.358 31.188C162.358 36.2227 163.915 40.3827 167.03 43.668C170.187 46.9107 174.113 48.532 178.806 48.532C181.195 48.532 183.435 47.9773 185.526 46.868C187.617 45.716 189.281 44.2013 190.518 42.324L195.062 44.82C190.923 50.452 185.505 53.268 178.806 53.268ZM210.984 52.5H205.672V9.812H222.824C226.963 9.812 230.227 11.0493 232.616 13.524C235.005 15.9987 236.2 19.0493 236.2 22.676C236.2 26.3027 234.984 29.3533 232.552 31.828C230.163 34.3027 226.92 35.54 222.824 35.54H210.984V52.5ZM222.184 30.804C224.701 30.804 226.749 30.0573 228.328 28.564C229.907 27.028 230.696 25.0653 230.696 22.676C230.696 20.2867 229.907 18.3453 228.328 16.852C226.749 15.316 224.701 14.548 222.184 14.548H210.984V30.804H222.184Z" fill="#323C46"/>
<path d="M137.92 96.3438H134.41V81.4937L128.26 96.3438H126.76L120.64 81.4937V96.3438H117.13V76.3337H122.08L127.51 89.5037L132.97 76.3337H137.92V96.3438ZM160.179 96.3438H156.189L154.719 92.5037H145.539L144.069 96.3438H140.079L147.939 76.3337H152.319L160.179 96.3438ZM153.729 89.4137L150.129 79.8737L146.529 89.4137H153.729ZM177.844 96.3438H173.794L169.354 88.8737H165.874V96.3438H162.364V76.3337H171.154C173.114 76.3337 174.694 76.9137 175.894 78.0737C177.094 79.2337 177.694 80.7437 177.694 82.6037C177.694 84.2837 177.234 85.6337 176.314 86.6537C175.394 87.6537 174.274 88.2637 172.954 88.4837L177.844 96.3438ZM170.674 85.7837C171.674 85.7837 172.494 85.4937 173.134 84.9137C173.774 84.3337 174.094 83.5637 174.094 82.6037C174.094 81.6437 173.774 80.8737 173.134 80.2937C172.494 79.7137 171.674 79.4237 170.674 79.4237H165.874V85.7837H170.674ZM197.492 96.3438H193.172L186.452 87.9137L184.712 89.9537V96.3438H181.202V76.3337H184.712V85.8737L192.542 76.3337H196.892L188.762 85.7837L197.492 96.3438ZM213.545 96.3438H199.835V76.3337H213.545V79.4237H203.345V84.6137H213.335V87.7037H203.345V93.2537H213.545V96.3438ZM225.43 96.3438H221.92V79.4237H215.86V76.3337H231.49V79.4237H225.43V96.3438Z" fill="#323C46"/>
<defs>
<clipPath id="clip0">
<rect width="105" height="105.271" fill="white" transform="translate(0 1.23047)"/>
</clipPath>
</defs>
</svg>
