<svg width="38" height="24" viewBox="0 0 38 24" fill="none" xmlns="http://www.w3.org/2000/svg">
<path fill-rule="evenodd" clip-rule="evenodd" d="M3.16667 0C1.41777 0 0 1.34315 0 3V21C0 22.6569 1.41776 24 3.16667 24H34.8333C36.5822 24 38 22.6569 38 21V3C38 1.34315 36.5822 0 34.8333 0H3.16667ZM25.0503 20.9809C30.2423 20.964 34.3719 16.912 34.2844 11.9204C34.1973 6.95392 29.9255 2.90405 24.7335 2.9209C22.542 2.92801 20.5458 3.66195 18.9754 4.87111L19.0247 4.90836L18.7451 4.90927C17.1376 3.72394 15.1275 3.0121 12.9497 3.01917C7.75775 3.03601 3.62808 7.08805 3.71564 12.0796C3.8032 17.0712 8.07454 21.096 13.2665 21.0792C15.458 21.072 17.4542 20.3381 19.0246 19.1289L18.9746 19.0917L19.2549 19.0908C20.8625 20.2761 22.8725 20.9879 25.0503 20.9809Z" fill="#D7E1EB"/>
</svg>
