<svg width="24" height="24" viewBox="0 0 24 24" fill="none" xmlns="http://www.w3.org/2000/svg">
<path fill-rule="evenodd" clip-rule="evenodd" d="M20.3999 5.99999C20.3999 5.68173 20.2735 5.3765 20.0484 5.15146C19.8234 4.92642 19.5182 4.79999 19.1999 4.79999H4.7999C4.48164 4.79999 4.17642 4.92642 3.95138 5.15146C3.72633 5.3765 3.59991 5.68173 3.59991 5.99999C3.59991 6.31825 3.72633 6.62347 3.95138 6.84852C4.17642 7.07356 4.48164 7.19999 4.7999 7.19999H19.1999C19.5182 7.19999 19.8234 7.07356 20.0484 6.84852C20.2735 6.62347 20.3999 6.31825 20.3999 5.99999Z" fill="#28323C"/>
<path fill-rule="evenodd" clip-rule="evenodd" d="M20.3999 12C20.3999 11.6817 20.2735 11.3765 20.0484 11.1515C19.8234 10.9264 19.5182 10.8 19.1999 10.8H4.7999C4.48164 10.8 4.17642 10.9264 3.95138 11.1515C3.72633 11.3765 3.59991 11.6817 3.59991 12C3.59991 12.3182 3.72633 12.6235 3.95138 12.8485C4.17642 13.0736 4.48164 13.2 4.7999 13.2H19.1999C19.5182 13.2 19.8234 13.0736 20.0484 12.8485C20.2735 12.6235 20.3999 12.3182 20.3999 12Z" fill="#28323C"/>
<path fill-rule="evenodd" clip-rule="evenodd" d="M13.1997 18C13.1997 17.6817 13.0733 17.3765 12.8482 17.1515C12.6232 16.9264 12.318 16.8 11.9997 16.8H4.79971C4.48145 16.8 4.17622 16.9264 3.95118 17.1515C3.72613 17.3765 3.59971 17.6817 3.59971 18C3.59971 18.3182 3.72613 18.6235 3.95118 18.8485C4.17622 19.0736 4.48145 19.2 4.79971 19.2H11.9997C12.318 19.2 12.6232 19.0736 12.8482 18.8485C13.0733 18.6235 13.1997 18.3182 13.1997 18Z" fill="#28323C"/>
</svg>
