<svg width="18" height="18" viewBox="0 0 18 18" fill="none" xmlns="http://www.w3.org/2000/svg">
<path d="M9.00004 17.3333C9.91671 17.3333 10.6667 16.5833 10.6667 15.6667H7.33338C7.33338 16.5833 8.08338 17.3333 9.00004 17.3333ZM14 7.33332C14 5.00832 12.4084 3.04999 10.25 2.49999V1.91666C10.25 1.22499 9.69171 0.666656 9.00004 0.666656C8.30838 0.666656 7.75004 1.22499 7.75004 1.91666V2.49999C5.59171 3.04999 4.00004 5.00832 4.00004 7.33332V13.1667H3.16671C2.70838 13.1667 2.33338 13.5417 2.33338 14C2.33338 14.4583 2.70838 14.8333 3.16671 14.8333H14.8334C15.2917 14.8333 15.6667 14.4583 15.6667 14C15.6667 13.5417 15.2917 13.1667 14.8334 13.1667H14V7.33332ZM4.12504 1.62499C3.79171 1.29166 3.25004 1.29999 2.92505 1.64166C1.69346 2.95035 0.918718 4.62264 0.716712 6.40832C0.666712 6.89999 1.05838 7.33332 1.55005 7.33332C1.96671 7.33332 2.32505 7.02499 2.37505 6.60832C2.53338 5.13332 3.18338 3.79999 4.14171 2.76666C4.45004 2.44999 4.44171 1.94166 4.12504 1.62499ZM13.8834 1.63332C13.5667 1.94999 13.5584 2.45832 13.8667 2.78332C14.8587 3.83369 15.4792 5.18014 15.6334 6.61666C15.675 7.03332 16.0417 7.34166 16.4584 7.34166C16.576 7.34237 16.6924 7.31819 16.8 7.2707C16.9075 7.22321 17.0039 7.15349 17.0826 7.06612C17.1613 6.97875 17.2206 6.87571 17.2567 6.76377C17.2927 6.65184 17.3046 6.53354 17.2917 6.41666C17.0917 4.58332 16.2917 2.93332 15.0917 1.65832C14.7584 1.30832 14.2167 1.29999 13.8834 1.63332Z" fill="#D7E1EB"/>
</svg>
