<svg width="16" height="16" viewBox="0 0 16 16" fill="none" xmlns="http://www.w3.org/2000/svg">
<path d="M8.00001 10.6667C9.47068 10.6667 10.6667 9.47067 10.6667 8V4C10.6667 2.522 9.47668 1.31934 8.01401 1.31934C7.96709 1.31962 7.92034 1.32521 7.87468 1.336C7.19018 1.36919 6.54463 1.66424 6.0716 2.1601C5.59856 2.65597 5.33425 3.3147 5.33334 4V8C5.33334 9.47067 6.52934 10.6667 8.00001 10.6667Z" fill="#73879B"/>
<path d="M7.33332 13.2873V14.6667H8.66666V13.2873C11.2927 12.9573 13.3333 10.7153 13.3333 8H12C12 10.206 10.206 12 7.99999 12C5.79399 12 3.99999 10.206 3.99999 8H2.66666C2.66666 10.7147 4.70732 12.9573 7.33332 13.2873Z" fill="#73879B"/>
</svg>
