<svg width="29" height="29" viewBox="0 0 29 29" fill="none" xmlns="http://www.w3.org/2000/svg">
<path d="M21.3056 2.51953H7.69444C6.40567 2.52108 5.17012 3.03372 4.25882 3.94502C3.34752 4.85632 2.83487 6.09187 2.83333 7.38064L2.83333 20.9918C2.83487 22.2805 3.34752 23.5161 4.25882 24.4274C5.17012 25.3387 6.40567 25.8513 7.69444 25.8529H21.3056C22.5943 25.8513 23.8299 25.3387 24.7412 24.4274C25.6525 23.5161 26.1651 22.2805 26.1667 20.9918V7.38064C26.1651 6.09187 25.6525 4.85632 24.7412 3.94502C23.8299 3.03372 22.5943 2.52108 21.3056 2.51953V2.51953ZM22.2778 10.3741L13.2808 19.3711C13.1003 19.5517 12.8859 19.695 12.6499 19.7928C12.4139 19.8905 12.161 19.9409 11.9056 19.9409C11.6502 19.9409 11.3973 19.8905 11.1613 19.7928C10.9254 19.695 10.711 19.5517 10.5304 19.3711L6.72222 15.5638C6.53953 15.3812 6.4369 15.1334 6.4369 14.875C6.4369 14.6167 6.53953 14.3689 6.72222 14.1862C6.9049 14.0035 7.15268 13.9009 7.41104 13.9009C7.66939 13.9009 7.91717 14.0035 8.09986 14.1862L11.9071 17.9934L20.905 8.99648C20.9955 8.90634 21.1028 8.8349 21.2208 8.78624C21.3389 8.73758 21.4654 8.71265 21.5931 8.71288C21.7208 8.7131 21.8472 8.73848 21.9651 8.78755C22.083 8.83663 22.1901 8.90845 22.2802 8.99891C22.3703 9.08936 22.4418 9.19669 22.4904 9.31475C22.5391 9.43282 22.564 9.55931 22.5638 9.68701C22.5636 9.81471 22.5382 9.94112 22.4891 10.059C22.44 10.1769 22.3682 10.284 22.2778 10.3741Z" fill="#AAA0FA"/>
</svg>
