<svg width="28" height="28" viewBox="0 0 28 28" fill="none" xmlns="http://www.w3.org/2000/svg">
<g clip-path="url(#clip0)">
<path d="M26.1382 14.3628C26.0256 14.1323 26.0256 13.8679 26.1382 13.6374L27.1825 11.5011C27.764 10.3116 27.3033 8.89382 26.1337 8.27329L24.0332 7.15876C23.8066 7.03856 23.6512 6.82463 23.6069 6.57202L23.196 4.22983C22.9673 2.92576 21.761 2.04945 20.4503 2.23489L18.0959 2.56794C17.8417 2.60381 17.5904 2.52211 17.4061 2.34378L15.6971 0.690473C14.7454 -0.23013 13.2547 -0.230185 12.3031 0.690473L10.594 2.34394C10.4096 2.52233 10.1583 2.60387 9.90426 2.5681L7.54981 2.23506C6.23869 2.0495 5.03283 2.92592 4.80408 4.22999L4.39327 6.57208C4.34891 6.82473 4.19355 7.03862 3.96698 7.15887L1.86644 8.2734C0.696903 8.89388 0.236218 10.3118 0.817652 11.5013L1.8619 13.6376C1.97456 13.8681 1.97456 14.1324 1.8619 14.3629L0.817598 16.4992C0.236163 17.6887 0.696848 19.1064 1.86639 19.727L3.96692 20.8415C4.19355 20.9617 4.34891 21.1756 4.39327 21.4282L4.80408 23.7704C5.01233 24.9576 6.03027 25.7901 7.2002 25.79C7.31542 25.79 7.43234 25.7819 7.54987 25.7653L9.90431 25.4323C10.1582 25.3962 10.4097 25.4781 10.5941 25.6564L12.3031 27.3097C12.779 27.7701 13.3894 28.0002 14.0001 28.0002C14.6105 28.0001 15.2213 27.77 15.697 27.3097L17.4061 25.6564C17.5905 25.4781 17.8418 25.3966 18.0959 25.4323L20.4503 25.7653C21.7616 25.9508 22.9673 25.0744 23.196 23.7704L23.6069 21.4283C23.6513 21.1756 23.8066 20.9618 24.0332 20.8415L26.1337 19.727C27.3033 19.1065 27.764 17.6886 27.1825 16.4991L26.1382 14.3628ZM10.7702 6.73297C12.4027 6.73297 13.7309 8.06116 13.7309 9.69368C13.7309 11.3262 12.4027 12.6544 10.7702 12.6544C9.13765 12.6544 7.80947 11.3262 7.80947 9.69368C7.80947 8.06116 9.13765 6.73297 10.7702 6.73297ZM9.242 19.9C9.08433 20.0577 8.87767 20.1365 8.67106 20.1365C8.46446 20.1365 8.25774 20.0577 8.10013 19.9C7.7848 19.5847 7.7848 19.0734 8.10013 18.7581L18.7581 8.10015C19.0733 7.78482 19.5847 7.78482 19.9 8.10015C20.2153 8.41547 20.2153 8.92675 19.9 9.24207L9.242 19.9ZM17.2298 21.2673C15.5973 21.2673 14.2691 19.9391 14.2691 18.3066C14.2691 16.6741 15.5973 15.3459 17.2298 15.3459C18.8624 15.3459 20.1905 16.6741 20.1905 18.3066C20.1905 19.9391 18.8624 21.2673 17.2298 21.2673Z" fill="#AAA0FA"/>
<path d="M17.2298 16.9609C16.4877 16.9609 15.884 17.5646 15.884 18.3067C15.884 19.0487 16.4877 19.6524 17.2298 19.6524C17.9718 19.6524 18.5755 19.0487 18.5755 18.3067C18.5755 17.5646 17.9718 16.9609 17.2298 16.9609Z" fill="#AAA0FA"/>
<path d="M10.7701 8.34766C10.0281 8.34766 9.42438 8.95135 9.42438 9.6934C9.42438 10.4354 10.0281 11.0392 10.7701 11.0392C11.5122 11.0392 12.1159 10.4355 12.1159 9.6934C12.1159 8.9514 11.5122 8.34766 10.7701 8.34766Z" fill="#AAA0FA"/>
</g>
<defs>
<clipPath id="clip0">
<rect width="28" height="28" fill="white"/>
</clipPath>
</defs>
</svg>
