<svg width="29" height="29" viewBox="0 0 29 29" fill="none" xmlns="http://www.w3.org/2000/svg">
<g clip-path="url(#clip0)">
<path d="M19.0715 9.77217H26.0715V6.44658C26.0715 4.33073 24.3892 2.60938 22.3215 2.60938H3.82146C1.7537 2.60938 0.0714722 4.33073 0.0714722 6.44658V20.7722C0.0714722 22.888 1.7537 24.6094 3.82146 24.6094H22.3215C24.3892 24.6094 26.0715 22.888 26.0715 20.7722V17.4466H19.0715C17.0037 17.4466 15.3215 15.7252 15.3215 13.6094C15.3215 11.4935 17.0037 9.77217 19.0715 9.77217Z" fill="#9182F0"/>
<g opacity="0.7">
<path d="M19.8126 10.7656C18.8738 10.7656 18.1099 11.8871 18.1099 13.2656C18.1099 14.6442 18.8737 15.7656 19.8126 15.7656H25.1099V10.7657H19.8126V10.7656ZM20.5694 14.0989H19.8126C19.4992 14.0989 19.2451 13.7258 19.2451 13.2656C19.2451 12.8054 19.4992 12.4323 19.8126 12.4323H20.5694C20.8828 12.4323 21.1369 12.8054 21.1369 13.2656C21.1369 13.7258 20.8828 14.0989 20.5694 14.0989Z" fill="#9182F0"/>
</g>
</g>
<defs>
<clipPath id="clip0">
<rect width="28" height="28" fill="white" transform="translate(0.0714722 0.1875)"/>
</clipPath>
</defs>
</svg>
