<svg width="28" height="28" viewBox="0 0 28 28" fill="none" xmlns="http://www.w3.org/2000/svg">
<path d="M25.6667 19.8333L25.6667 17.7625C25.6625 17.3274 25.514 16.906 25.2444 16.5644C24.9748 16.2229 24.5995 15.9805 24.1772 15.8754C23.7661 15.7629 23.4034 15.5183 23.1449 15.1795C22.8863 14.8406 22.7463 14.4262 22.7463 14C22.7463 13.5738 22.8863 13.1594 23.1449 12.8205C23.4034 12.4817 23.7661 12.2371 24.1772 12.1246C24.5995 12.0195 24.9748 11.7771 25.2444 11.4356C25.514 11.094 25.6625 10.6726 25.6667 10.2375L25.6667 8.16667C25.6667 7.39312 25.3594 6.65125 24.8124 6.10427C24.2654 5.55729 23.5235 5.25 22.75 5.25H18.8611L18.8611 9.13889C18.8611 9.39674 18.7587 9.64403 18.5764 9.82635C18.394 10.0087 18.1467 10.1111 17.8889 10.1111C17.631 10.1111 17.3837 10.0087 17.2014 9.82635C17.0191 9.64403 16.9167 9.39674 16.9167 9.13889V5.25L7.19444 5.25C5.90567 5.25154 4.67012 5.76419 3.75882 6.67549C2.84752 7.58679 2.33487 8.82234 2.33333 10.1111L2.33333 10.2375C2.33746 10.6726 2.48598 11.094 2.75556 11.4356C3.02515 11.7771 3.40053 12.0195 3.82277 12.1246C4.23387 12.2371 4.59659 12.4817 4.85513 12.8205C5.11368 13.1594 5.25372 13.5738 5.25372 14C5.25372 14.4262 5.11368 14.8406 4.85513 15.1795C4.59659 15.5183 4.23387 15.7629 3.82277 15.8754C3.40053 15.9805 3.02515 16.2229 2.75556 16.5644C2.48598 16.906 2.33746 17.3274 2.33333 17.7625V17.8889C2.33487 19.1777 2.84752 20.4132 3.75882 21.3245C4.67012 22.2358 5.90567 22.7485 7.19444 22.75L16.9167 22.75V18.8611C16.9167 18.6033 17.0191 18.356 17.2014 18.1736C17.3837 17.9913 17.631 17.8889 17.8889 17.8889C18.1467 17.8889 18.394 17.9913 18.5764 18.1736C18.7587 18.356 18.8611 18.6033 18.8611 18.8611V22.75H22.75C23.5235 22.75 24.2654 22.4427 24.8124 21.8957C25.3594 21.3487 25.6667 20.6069 25.6667 19.8333ZM16.9167 14.9722V13.0278C16.9167 12.7699 17.0191 12.5226 17.2014 12.3403C17.3837 12.158 17.631 12.0556 17.8889 12.0556C18.1467 12.0556 18.394 12.158 18.5764 12.3403C18.7587 12.5226 18.8611 12.7699 18.8611 13.0278V14.9722C18.8611 15.2301 18.7587 15.4774 18.5764 15.6597C18.394 15.842 18.1467 15.9444 17.8889 15.9444C17.631 15.9444 17.3837 15.842 17.2014 15.6597C17.0191 15.4774 16.9167 15.2301 16.9167 14.9722Z" fill="white"/>
</svg>
