<svg width="12" height="13" viewBox="0 0 12 13" fill="none" xmlns="http://www.w3.org/2000/svg">
<path d="M9.75004 3.16667H8.45837C8.36167 2.69642 8.1058 2.27389 7.7339 1.9703C7.36199 1.6667 6.89679 1.50061 6.41671 1.5L5.58337 1.5C5.10329 1.50061 4.63809 1.6667 4.26619 1.9703C3.89428 2.27389 3.63841 2.69642 3.54171 3.16667H2.25004C2.13953 3.16667 2.03355 3.21057 1.95541 3.28871C1.87727 3.36685 1.83337 3.47283 1.83337 3.58333C1.83337 3.69384 1.87727 3.79982 1.95541 3.87796C2.03355 3.9561 2.13953 4 2.25004 4H2.66671V9.41667C2.66737 9.969 2.88707 10.4985 3.27763 10.8891C3.66819 11.2796 4.19771 11.4993 4.75004 11.5H7.25004C7.80237 11.4993 8.33189 11.2796 8.72245 10.8891C9.11301 10.4985 9.33271 9.969 9.33337 9.41667V4H9.75004C9.86055 4 9.96653 3.9561 10.0447 3.87796C10.1228 3.79982 10.1667 3.69384 10.1667 3.58333C10.1667 3.47283 10.1228 3.36685 10.0447 3.28871C9.96653 3.21057 9.86055 3.16667 9.75004 3.16667ZM5.58337 8.58333C5.58337 8.69384 5.53948 8.79982 5.46133 8.87796C5.38319 8.9561 5.27721 9 5.16671 9C5.0562 9 4.95022 8.9561 4.87208 8.87796C4.79394 8.79982 4.75004 8.69384 4.75004 8.58333V6.08333C4.75004 5.97283 4.79394 5.86685 4.87208 5.78871C4.95022 5.71057 5.0562 5.66667 5.16671 5.66667C5.27721 5.66667 5.38319 5.71057 5.46133 5.78871C5.53948 5.86685 5.58337 5.97283 5.58337 6.08333V8.58333ZM7.25004 8.58333C7.25004 8.69384 7.20614 8.79982 7.128 8.87796C7.04986 8.9561 6.94388 9 6.83337 9C6.72287 9 6.61689 8.9561 6.53875 8.87796C6.46061 8.79982 6.41671 8.69384 6.41671 8.58333V6.08333C6.41671 5.97283 6.46061 5.86685 6.53875 5.78871C6.61689 5.71057 6.72287 5.66667 6.83337 5.66667C6.94388 5.66667 7.04986 5.71057 7.128 5.78871C7.20614 5.86685 7.25004 5.97283 7.25004 6.08333V8.58333ZM4.40462 3.16667C4.49112 2.92312 4.65083 2.7123 4.86187 2.5631C5.0729 2.41391 5.32493 2.33365 5.58337 2.33333H6.41671C6.67515 2.33365 6.92718 2.41391 7.13821 2.5631C7.34925 2.7123 7.50896 2.92312 7.59546 3.16667H4.40462Z" fill="#F9F9F9"/>
</svg>
