<svg width="21" height="20" viewBox="0 0 21 20" fill="none" xmlns="http://www.w3.org/2000/svg">
<path d="M18.4116 4.49794C18.2163 4.26352 17.9717 4.07499 17.6953 3.94573C17.4189 3.81646 17.1174 3.74965 16.8123 3.75002H5.58451L5.55534 3.50627C5.49565 2.99962 5.25213 2.53247 4.87096 2.19341C4.48978 1.85434 3.99744 1.66692 3.48728 1.66669L3.33312 1.66669C3.14894 1.66669 2.9723 1.73985 2.84207 1.87009C2.71184 2.00032 2.63867 2.17695 2.63867 2.36113C2.63867 2.54531 2.71184 2.72194 2.84207 2.85218C2.9723 2.98241 3.14894 3.05558 3.33312 3.05558H3.48728C3.65738 3.0556 3.82154 3.11805 3.94865 3.23107C4.07576 3.3441 4.15697 3.49985 4.17687 3.66877L5.13242 11.7938C5.23162 12.6388 5.63761 13.4179 6.27333 13.9834C6.90905 14.5488 7.73024 14.8611 8.58103 14.8611H15.8331C16.0173 14.8611 16.1939 14.788 16.3242 14.6577C16.4544 14.5275 16.5276 14.3509 16.5276 14.1667C16.5276 13.9825 16.4544 13.8059 16.3242 13.6756C16.1939 13.5454 16.0173 13.4722 15.8331 13.4722H8.58103C8.15121 13.471 7.73228 13.3369 7.38168 13.0883C7.03108 12.8396 6.76597 12.4886 6.6227 12.0834H14.9005C15.7146 12.0834 16.5028 11.7974 17.1274 11.2753C17.7521 10.7532 18.1734 10.0283 18.3178 9.2271L18.863 6.20349C18.9174 5.9035 18.9052 5.59521 18.8272 5.30046C18.7492 5.00572 18.6073 4.73174 18.4116 4.49794Z" fill="#73879B"/>
<path d="M7.50022 18.3333C8.26728 18.3333 8.88911 17.7115 8.88911 16.9444C8.88911 16.1774 8.26728 15.5555 7.50022 15.5555C6.73315 15.5555 6.11133 16.1774 6.11133 16.9444C6.11133 17.7115 6.73315 18.3333 7.50022 18.3333Z" fill="#73879B"/>
<path d="M14.4446 18.3333C15.2116 18.3333 15.8334 17.7115 15.8334 16.9444C15.8334 16.1774 15.2116 15.5555 14.4446 15.5555C13.6775 15.5555 13.0557 16.1774 13.0557 16.9444C13.0557 17.7115 13.6775 18.3333 14.4446 18.3333Z" fill="#73879B"/>
</svg>
