<svg width="21" height="20" viewBox="0 0 21 20" fill="none" xmlns="http://www.w3.org/2000/svg">
<path d="M14.1012 5.41663H15.7679V17.0833H5.7679V5.41663H7.43457V4.58329C7.43457 4.14127 7.61017 3.71734 7.92273 3.40478C8.23529 3.09222 8.65921 2.91663 9.10124 2.91663H12.4346C12.8766 2.91663 13.3005 3.09222 13.6131 3.40478C13.9256 3.71734 14.1012 4.14127 14.1012 4.58329V5.41663ZM16.6012 5.41663H17.4346C17.8766 5.41663 18.3005 5.59222 18.6131 5.90478C18.9256 6.21734 19.1012 6.64127 19.1012 7.08329V15.4166C19.1012 15.8587 18.9256 16.2826 18.6131 16.5951C18.3005 16.9077 17.8766 17.0833 17.4346 17.0833H16.6012V5.41663ZM4.93457 5.41663V17.0833H4.10124C3.65921 17.0833 3.23529 16.9077 2.92273 16.5951C2.61017 16.2826 2.43457 15.8587 2.43457 15.4166V7.08329C2.43457 6.16663 3.18457 5.41663 4.10124 5.41663H4.93457ZM9.10124 4.58329V5.41663H12.4346V4.58329H9.10124Z" fill="#73879B"/>
</svg>
