<svg width="21" height="20" viewBox="0 0 21 20" fill="none" xmlns="http://www.w3.org/2000/svg">
<path d="M3.8929 2.5C3.72714 2.5 3.56817 2.56585 3.45096 2.68306C3.33375 2.80027 3.2679 2.95924 3.2679 3.125C3.2679 3.29076 3.33375 3.44973 3.45096 3.56694C3.56817 3.68415 3.72714 3.75 3.8929 3.75H4.76124L2.4804 9.3475C2.45002 9.42241 2.43445 9.5025 2.43457 9.58333C2.43457 9.96636 2.51001 10.3456 2.65659 10.6995C2.80317 11.0534 3.01801 11.3749 3.28884 11.6457C3.55968 11.9166 3.88121 12.1314 4.23508 12.278C4.58894 12.4246 4.96822 12.5 5.35124 12.5C5.73426 12.5 6.11353 12.4246 6.4674 12.278C6.82126 12.1314 7.1428 11.9166 7.41363 11.6457C7.68447 11.3749 7.89931 11.0534 8.04589 10.6995C8.19246 10.3456 8.26791 9.96636 8.26791 9.58333C8.26802 9.5025 8.25246 9.42241 8.22207 9.3475L5.94124 3.75H10.1429V13.75H6.81207C6.31479 13.75 5.83788 13.9475 5.48625 14.2992C5.13462 14.6508 4.93707 15.1277 4.93707 15.625C4.93707 16.1223 5.13462 16.5992 5.48625 16.9508C5.83788 17.3025 6.31479 17.5 6.81207 17.5H14.7262C15.2235 17.5 15.7004 17.3025 16.0521 16.9508C16.4037 16.5992 16.6012 16.1223 16.6012 15.625C16.6012 15.1277 16.4037 14.6508 16.0521 14.2992C15.7004 13.9475 15.2235 13.75 14.7262 13.75H11.3929V3.75H15.5946L13.3137 9.3475C13.2834 9.42241 13.2678 9.5025 13.2679 9.58333C13.2679 10.3569 13.5752 11.0987 14.1222 11.6457C14.6692 12.1927 15.411 12.5 16.1846 12.5C16.9581 12.5 17.7 12.1927 18.247 11.6457C18.7939 11.0987 19.1012 10.3569 19.1012 9.58333C19.1014 9.5025 19.0858 9.42241 19.0554 9.3475L16.7746 3.75H17.6429C17.8087 3.75 17.9676 3.68415 18.0848 3.56694C18.2021 3.44973 18.2679 3.29076 18.2679 3.125C18.2679 2.95924 18.2021 2.80027 18.0848 2.68306C17.9676 2.56585 17.8087 2.5 17.6429 2.5H3.8929ZM5.35124 5.615L6.71374 8.95833H3.98874L5.35124 5.615ZM14.8221 8.95833L16.1846 5.615L17.5471 8.95833H14.8221Z" fill="#73879B"/>
</svg>
