<svg width="21" height="20" viewBox="0 0 21 20" fill="none" xmlns="http://www.w3.org/2000/svg">
<path d="M4.35616 18.1668C4.73874 18.3303 5.16172 18.3747 5.56992 18.2942C5.97812 18.2137 6.35258 18.0121 6.64446 17.7156L10.7677 13.6147L14.891 17.7156C15.0833 17.9106 15.3123 18.0656 15.5649 18.1716C15.8174 18.2775 16.0885 18.3323 16.3624 18.3328C16.6439 18.332 16.9225 18.2756 17.1821 18.1668C17.5678 18.0107 17.8975 17.7419 18.1281 17.3956C18.3587 17.0492 18.4796 16.6414 18.4748 16.2253V5.16984C18.4737 4.24107 18.1043 3.35066 17.4475 2.69392C16.7908 2.03718 15.9004 1.66774 14.9716 1.66663L6.56388 1.66663C5.63512 1.66774 4.74471 2.03718 4.08797 2.69392C3.43123 3.35066 3.06178 4.24107 3.06067 5.16984V16.2253C3.05615 16.6417 3.17738 17.0498 3.40851 17.3961C3.63965 17.7425 3.96992 18.0111 4.35616 18.1668Z" fill="#73879B"/>
</svg>
