<svg width="16" height="16" viewBox="0 0 16 16" fill="none" xmlns="http://www.w3.org/2000/svg">
<path d="M2.87072 14.5341C3.17678 14.6649 3.51517 14.7004 3.84173 14.636C4.16828 14.5716 4.46785 14.4103 4.70136 14.1731L7.99999 10.8924L11.2986 14.1731C11.4524 14.3292 11.6356 14.4532 11.8377 14.5379C12.0397 14.6227 12.2566 14.6666 12.4757 14.6669C12.7009 14.6663 12.9238 14.6211 13.1315 14.5341C13.4401 14.4092 13.7038 14.1942 13.8883 13.9171C14.0728 13.64 14.1694 13.3138 14.1656 12.9809V4.13656C14.1648 3.39354 13.8692 2.68121 13.3438 2.15582C12.8184 1.63043 12.1061 1.33487 11.3631 1.33398L4.6369 1.33398C3.89388 1.33487 3.18156 1.63043 2.65616 2.15582C2.13077 2.68121 1.83522 3.39354 1.83433 4.13656V12.9809C1.83071 13.314 1.92769 13.6405 2.1126 13.9176C2.29751 14.1947 2.56173 14.4096 2.87072 14.5341Z" fill="#73C8EB"/>
</svg>
