<svg width="20" height="20" viewBox="0 0 20 20" fill="none" xmlns="http://www.w3.org/2000/svg">
<path d="M17.6389 9.3049H10.6944V2.36046C10.6944 2.17628 10.6213 1.99965 10.491 1.86941C10.3608 1.73918 10.1842 1.66602 9.99999 1.66602C9.81581 1.66602 9.63918 1.73918 9.50894 1.86941C9.37871 1.99965 9.30555 2.17628 9.30555 2.36046V9.3049H2.3611C2.17692 9.3049 2.00029 9.37807 1.87005 9.5083C1.73982 9.63854 1.66666 9.81517 1.66666 9.99935C1.66666 10.1835 1.73982 10.3602 1.87005 10.4904C2.00029 10.6206 2.17692 10.6938 2.3611 10.6938H9.30555V17.6382C9.30555 17.8224 9.37871 17.9991 9.50894 18.1293C9.63918 18.2595 9.81581 18.3327 9.99999 18.3327C10.1842 18.3327 10.3608 18.2595 10.491 18.1293C10.6213 17.9991 10.6944 17.8224 10.6944 17.6382V10.6938H17.6389C17.8231 10.6938 17.9997 10.6206 18.1299 10.4904C18.2602 10.3602 18.3333 10.1835 18.3333 9.99935C18.3333 9.81517 18.2602 9.63854 18.1299 9.5083C17.9997 9.37807 17.8231 9.3049 17.6389 9.3049Z" fill="#A5B4C3"/>
</svg>
