<svg width="16" height="16" viewBox="0 0 16 16" fill="none" xmlns="http://www.w3.org/2000/svg">
<path d="M13 3.55621H11.2778C11.1488 2.92921 10.8077 2.36584 10.3118 1.96105C9.81595 1.55626 9.19568 1.33479 8.55557 1.33398L7.44446 1.33398C6.80434 1.33479 6.18408 1.55626 5.68821 1.96105C5.19234 2.36584 4.85118 2.92921 4.72224 3.55621H3.00001C2.85267 3.55621 2.71136 3.61474 2.60718 3.71893C2.50299 3.82311 2.44446 3.96442 2.44446 4.11176C2.44446 4.2591 2.50299 4.40041 2.60718 4.5046C2.71136 4.60879 2.85267 4.66732 3.00001 4.66732H3.55557V11.8895C3.55645 12.626 3.84939 13.332 4.37014 13.8528C4.89088 14.3735 5.5969 14.6664 6.33335 14.6673H9.66668C10.4031 14.6664 11.1091 14.3735 11.6299 13.8528C12.1506 13.332 12.4436 12.626 12.4445 11.8895V4.66732H13C13.1474 4.66732 13.2887 4.60879 13.3929 4.5046C13.497 4.40041 13.5556 4.2591 13.5556 4.11176C13.5556 3.96442 13.497 3.82311 13.3929 3.71893C13.2887 3.61474 13.1474 3.55621 13 3.55621ZM7.44446 10.7784C7.44446 10.9258 7.38593 11.0671 7.28174 11.1713C7.17755 11.2755 7.03624 11.334 6.8889 11.334C6.74156 11.334 6.60025 11.2755 6.49607 11.1713C6.39188 11.0671 6.33335 10.9258 6.33335 10.7784V7.4451C6.33335 7.29775 6.39188 7.15645 6.49607 7.05226C6.60025 6.94807 6.74156 6.88954 6.8889 6.88954C7.03624 6.88954 7.17755 6.94807 7.28174 7.05226C7.38593 7.15645 7.44446 7.29775 7.44446 7.4451V10.7784ZM9.66668 10.7784C9.66668 10.9258 9.60815 11.0671 9.50396 11.1713C9.39977 11.2755 9.25847 11.334 9.11112 11.334C8.96378 11.334 8.82247 11.2755 8.71829 11.1713C8.6141 11.0671 8.55557 10.9258 8.55557 10.7784V7.4451C8.55557 7.29775 8.6141 7.15645 8.71829 7.05226C8.82247 6.94807 8.96378 6.88954 9.11112 6.88954C9.25847 6.88954 9.39977 6.94807 9.50396 7.05226C9.60815 7.15645 9.66668 7.29775 9.66668 7.4451V10.7784ZM5.87279 3.55621C5.98811 3.23148 6.20107 2.95038 6.48245 2.75145C6.76383 2.55253 7.09986 2.44552 7.44446 2.4451H8.55557C8.90017 2.44552 9.23619 2.55253 9.51758 2.75145C9.79896 2.95038 10.0119 3.23148 10.1272 3.55621H5.87279Z" fill="#A5B4C3"/>
</svg>
