<svg width="28" height="29" viewBox="0 0 28 29" fill="none" xmlns="http://www.w3.org/2000/svg">
<path d="M14 14.9401C17.2217 14.9401 19.8333 12.3284 19.8333 9.10677C19.8333 5.88511 17.2217 3.27344 14 3.27344C10.7783 3.27344 8.16666 5.88511 8.16666 9.10677C8.16666 12.3284 10.7783 14.9401 14 14.9401Z" fill="#AAA0FA"/>
<path d="M14 16.8828C11.6801 16.8854 9.45604 17.8081 7.81566 19.4485C6.17527 21.0889 5.25257 23.313 5.25 25.6328C5.25 25.8907 5.35243 26.138 5.53476 26.3203C5.71708 26.5026 5.96437 26.605 6.22222 26.605H21.7778C22.0356 26.605 22.2829 26.5026 22.4652 26.3203C22.6476 26.138 22.75 25.8907 22.75 25.6328C22.7474 23.313 21.8247 21.0889 20.1843 19.4485C18.544 17.8081 16.3199 16.8854 14 16.8828Z" fill="#AAA0FA"/>
</svg>
