<svg width="28" height="28" viewBox="0 0 28 28" fill="none" xmlns="http://www.w3.org/2000/svg">
<path d="M20.8056 5.25H7.19445C4.47223 5.25 2.33334 7.38889 2.33334 10.1111H25.6667C25.6667 7.38889 23.5278 5.25 20.8056 5.25Z" fill="white"/>
<path d="M2.33334 17.888C2.33334 20.6102 4.47223 22.7491 7.19445 22.7491H20.8056C23.5278 22.7491 25.6667 20.6102 25.6667 17.888V12.0547H2.33334V17.888ZM9.1389 17.4019C9.1389 18.1797 8.45834 18.8602 7.68057 18.8602C6.90279 18.8602 6.22223 18.1797 6.22223 17.4019C6.22223 16.6241 6.90279 15.9436 7.68057 15.9436C8.45834 15.9436 9.1389 16.6241 9.1389 17.4019Z" fill="white"/>
</svg>
