<svg width="28" height="28" viewBox="0 0 28 28" fill="none" xmlns="http://www.w3.org/2000/svg">
<path d="M20.8056 5.27009C20.8056 5.26231 20.8056 5.25648 20.8056 5.2487V3.30425C20.8056 3.0464 20.7031 2.79912 20.5208 2.61679C20.3385 2.43446 20.0912 2.33203 19.8333 2.33203C19.5755 2.33203 19.3282 2.43446 19.1459 2.61679C18.9635 2.79912 18.8611 3.0464 18.8611 3.30425V4.3737C18.5411 4.30872 18.2154 4.27615 17.8889 4.27648H16.9167V3.30425C16.9167 3.0464 16.8142 2.79912 16.6319 2.61679C16.4496 2.43446 16.2023 2.33203 15.9444 2.33203C15.6866 2.33203 15.4393 2.43446 15.257 2.61679C15.0747 2.79912 14.9722 3.0464 14.9722 3.30425V4.27648H13.0278V3.30425C13.0278 3.0464 12.9253 2.79912 12.743 2.61679C12.5607 2.43446 12.3134 2.33203 12.0556 2.33203C11.7977 2.33203 11.5504 2.43446 11.3681 2.61679C11.1858 2.79912 11.0833 3.0464 11.0833 3.30425V4.27648H10.1111C9.78459 4.27615 9.45888 4.30872 9.13889 4.3737V3.30425C9.13889 3.0464 9.03646 2.79912 8.85413 2.61679C8.6718 2.43446 8.42452 2.33203 8.16667 2.33203C7.90882 2.33203 7.66153 2.43446 7.4792 2.61679C7.29687 2.79912 7.19444 3.0464 7.19444 3.30425V5.2487C7.19444 5.25648 7.19444 5.26231 7.19444 5.27009C6.59243 5.71962 6.10332 6.30311 5.76583 6.97438C5.42834 7.64564 5.25173 8.38626 5.25 9.13759V20.8043C5.25154 22.093 5.76419 23.3286 6.67549 24.2399C7.58679 25.1512 8.82234 25.6638 10.1111 25.6654H17.8889C19.1777 25.6638 20.4132 25.1512 21.3245 24.2399C22.2358 23.3286 22.7485 22.093 22.75 20.8043V9.13759C22.7483 8.38626 22.5717 7.64564 22.2342 6.97438C21.8967 6.30311 21.4076 5.71962 20.8056 5.27009ZM14 18.8598H10.1111C9.85326 18.8598 9.60597 18.7574 9.42365 18.5751C9.24132 18.3927 9.13889 18.1454 9.13889 17.8876C9.13889 17.6297 9.24132 17.3825 9.42365 17.2001C9.60597 17.0178 9.85326 16.9154 10.1111 16.9154H14C14.2578 16.9154 14.5051 17.0178 14.6875 17.2001C14.8698 17.3825 14.9722 17.6297 14.9722 17.8876C14.9722 18.1454 14.8698 18.3927 14.6875 18.5751C14.5051 18.7574 14.2578 18.8598 14 18.8598ZM17.8889 14.9709H10.1111C9.85326 14.9709 9.60597 14.8685 9.42365 14.6862C9.24132 14.5038 9.13889 14.2565 9.13889 13.9987C9.13889 13.7408 9.24132 13.4936 9.42365 13.3112C9.60597 13.1289 9.85326 13.0265 10.1111 13.0265H17.8889C18.1467 13.0265 18.394 13.1289 18.5764 13.3112C18.7587 13.4936 18.8611 13.7408 18.8611 13.9987C18.8611 14.2565 18.7587 14.5038 18.5764 14.6862C18.394 14.8685 18.1467 14.9709 17.8889 14.9709ZM17.8889 11.082H10.1111C9.85326 11.082 9.60597 10.9796 9.42365 10.7973C9.24132 10.6149 9.13889 10.3677 9.13889 10.1098C9.13889 9.85196 9.24132 9.60467 9.42365 9.42234C9.60597 9.24002 9.85326 9.13759 10.1111 9.13759H17.8889C18.1467 9.13759 18.394 9.24002 18.5764 9.42234C18.7587 9.60467 18.8611 9.85196 18.8611 10.1098C18.8611 10.3677 18.7587 10.6149 18.5764 10.7973C18.394 10.9796 18.1467 11.082 17.8889 11.082Z" fill="#AAA0FA"/>
</svg>
