<svg width="28" height="28" viewBox="0 0 28 28" fill="none" xmlns="http://www.w3.org/2000/svg">
<path d="M20.8055 2.33203H7.19442C5.90565 2.33358 4.67011 2.84622 3.7588 3.75752C2.8475 4.66882 2.33486 5.90437 2.33331 7.19314L2.33331 20.8043C2.33486 22.093 2.8475 23.3286 3.7588 24.2399C4.67011 25.1512 5.90565 25.6638 7.19442 25.6654H20.8055C22.0943 25.6638 23.3299 25.1512 24.2412 24.2399C25.1525 23.3286 25.6651 22.093 25.6666 20.8043V7.19314C25.6651 5.90437 25.1525 4.66882 24.2412 3.75752C23.3299 2.84622 22.0943 2.33358 20.8055 2.33203V2.33203ZM21.7778 10.1866L12.7808 19.1836C12.6002 19.3642 12.3859 19.5075 12.1499 19.6053C11.9139 19.703 11.661 19.7534 11.4056 19.7534C11.1502 19.7534 10.8973 19.703 10.6613 19.6053C10.4254 19.5075 10.211 19.3642 10.0304 19.1836L6.2222 15.3763C6.03952 15.1937 5.93688 14.9459 5.93688 14.6875C5.93688 14.4292 6.03952 14.1814 6.2222 13.9987C6.40489 13.816 6.65266 13.7134 6.91102 13.7134C7.16938 13.7134 7.41715 13.816 7.59984 13.9987L11.4071 17.8059L20.405 8.80898C20.4954 8.71884 20.6028 8.6474 20.7208 8.59874C20.8389 8.55008 20.9654 8.52515 21.0931 8.52538C21.2208 8.5256 21.3472 8.55098 21.4651 8.60005C21.583 8.64913 21.6901 8.72095 21.7802 8.81141C21.8703 8.90186 21.9418 9.00919 21.9904 9.12725C22.0391 9.24532 22.064 9.37181 22.0638 9.49951C22.0636 9.62721 22.0382 9.75362 21.9891 9.87151C21.94 9.98941 21.8682 10.0965 21.7778 10.1866Z" fill="#AAA0FA"/>
</svg>
