<svg width="28" height="28" viewBox="0 0 28 28" fill="none" xmlns="http://www.w3.org/2000/svg">
<path d="M20.3981 4.41279L14.3072 2.38185C14.1078 2.31543 13.8922 2.31543 13.6928 2.38185L7.6019 4.41279C6.63349 4.73447 5.79108 5.35316 5.19437 6.18095C4.59766 7.00874 4.27699 8.00353 4.27793 9.02397V13.9988C4.27793 21.3516 13.2222 25.4125 13.6053 25.5816C13.7296 25.6368 13.864 25.6654 14 25.6654C14.136 25.6654 14.2704 25.6368 14.3947 25.5816C14.7778 25.4125 23.7221 21.3516 23.7221 13.9988V9.02397C23.723 8.00353 23.4023 7.00874 22.8056 6.18095C22.2089 5.35316 21.3665 4.73447 20.3981 4.41279ZM18.5869 11.7792L14.4336 15.9325C14.2636 16.1036 14.0614 16.2392 13.8386 16.3315C13.6158 16.4238 13.3769 16.4709 13.1357 16.4701H13.1036C12.8575 16.4663 12.6148 16.4127 12.39 16.3124C12.1653 16.2122 11.9632 16.0674 11.796 15.8868L9.55409 13.5535C9.457 13.4634 9.37934 13.3544 9.32587 13.2333C9.2724 13.1121 9.24426 12.9813 9.24316 12.8488C9.24207 12.7164 9.26805 12.5851 9.3195 12.4631C9.37096 12.341 9.44681 12.2308 9.5424 12.1391C9.63799 12.0474 9.7513 11.9763 9.87539 11.9299C9.99947 11.8836 10.1317 11.8632 10.264 11.8698C10.3963 11.8764 10.5258 11.91 10.6446 11.9685C10.7635 12.027 10.8691 12.1091 10.955 12.2099L13.1367 14.4849L17.2083 10.4016C17.3916 10.2245 17.6372 10.1265 17.8921 10.1287C18.147 10.1309 18.3909 10.2332 18.5711 10.4134C18.7514 10.5937 18.8536 10.8375 18.8559 11.0924C18.8581 11.3473 18.7601 11.5929 18.583 11.7763L18.5869 11.7792Z" fill="#AAA0FA"/>
</svg>
