<svg width="28" height="28" viewBox="0 0 28 28" fill="none" xmlns="http://www.w3.org/2000/svg">
<path d="M19.0974 4.56146C18.8254 4.28963 18.479 4.10451 18.1019 4.02953C17.7248 3.95454 17.3339 3.99304 16.9787 4.14017C16.6235 4.2873 16.3198 4.53644 16.1062 4.85611C15.8925 5.17578 15.7785 5.55161 15.7784 5.93611V7.47796H11.0828C8.76309 7.48054 6.53912 8.40318 4.89883 10.0435C3.25853 11.6838 2.33589 13.9077 2.33331 16.2275L2.33331 23.0326C2.33331 23.2905 2.43574 23.5377 2.61805 23.7201C2.80037 23.9024 3.04765 24.0048 3.30548 24.0048C3.56331 24.0048 3.81059 23.9024 3.99291 23.7201C4.17522 23.5377 4.27765 23.2905 4.27765 23.0326C4.27919 21.4861 4.89423 20.0034 5.9878 18.9098C7.08137 17.8162 8.56412 17.2012 10.1107 17.1996H15.7784V18.7415C15.7785 19.126 15.8925 19.5018 16.1062 19.8215C16.3198 20.1412 16.6235 20.3903 16.9787 20.5374C17.3339 20.6846 17.7248 20.7231 18.1019 20.6481C18.479 20.5731 18.8254 20.388 19.0974 20.1161L24.8127 14.4008C25.3595 13.8538 25.6666 13.1122 25.6666 12.3388C25.6666 11.5654 25.3595 10.8238 24.8127 10.2768L19.0974 4.56146Z" fill="#AAA0FA"/>
</svg>
