<svg width="24" height="24" viewBox="0 0 24 24" fill="none" xmlns="http://www.w3.org/2000/svg">
<path d="M17.8333 4.5H6.16667C3.83333 4.5 2 6.33333 2 8.66667H22C22 6.33333 20.1667 4.5 17.8333 4.5Z" fill="#F9F9F9"/>
<path d="M2 15.334C2 17.6673 3.83333 19.5007 6.16667 19.5007H17.8333C20.1667 19.5007 22 17.6673 22 15.334V10.334H2V15.334ZM7.83333 14.9173C7.83333 15.584 7.25 16.1673 6.58333 16.1673C5.91667 16.1673 5.33333 15.584 5.33333 14.9173C5.33333 14.2507 5.91667 13.6673 6.58333 13.6673C7.25 13.6673 7.83333 14.2507 7.83333 14.9173Z" fill="#F9F9F9"/>
</svg>
