<svg width="35" height="35" viewBox="0 0 35 35" fill="none" xmlns="http://www.w3.org/2000/svg">
<path d="M20.6221 7.35262L20.623 7.35362C21.2321 7.98837 21.6151 8.82826 21.7018 9.73132C21.7884 10.6344 21.5727 11.5393 21.0946 12.2909C20.6168 13.0422 19.9081 13.5917 19.0932 13.8518C18.2787 14.1117 17.4037 14.068 16.6157 13.7275C15.8271 13.3867 15.1707 12.7677 14.7629 11.9709C14.3549 11.1737 14.223 10.2508 14.3916 9.36088C14.5601 8.47108 15.0176 7.67449 15.6806 7.10461C16.343 6.53517 17.17 6.22665 18.02 6.22658L18.0215 6.22658C18.5026 6.22514 18.9798 6.32331 19.4258 6.51607C19.8719 6.70885 20.2787 6.99276 20.6221 7.35262ZM25.7818 25.1679V26.5433C23.5293 28.2977 20.7979 29.245 17.992 29.245C15.1862 29.245 12.4547 28.2977 10.2022 26.5433V25.1679C10.2022 22.9921 11.0282 20.9097 12.4918 19.3779C13.9546 17.8468 15.9336 16.9911 17.992 16.9911C20.0504 16.9911 22.0294 17.8468 23.4923 19.3779C24.9558 20.9097 25.7818 22.9921 25.7818 25.1679Z" stroke="white"/>
</svg>
