<svg width="25" height="24" viewBox="0 0 25 24" fill="none" xmlns="http://www.w3.org/2000/svg">
<path fill-rule="evenodd" clip-rule="evenodd" d="M20.5 7.22726C21.6046 7.22726 22.5 8.12269 22.5 9.22726V12.2273V14.9545V17.9545C22.5 19.0591 21.6046 19.9545 20.5 19.9545H4.5C3.39543 19.9545 2.5 19.0591 2.5 17.9545V6.04544C2.5 4.94087 3.39543 4.04544 4.5 4.04544H17.0455C18.0496 4.04544 18.8636 4.85947 18.8636 5.86362H5.45455C5.07799 5.86362 4.77273 6.16888 4.77273 6.54544C4.77273 6.922 5.07799 7.22726 5.45455 7.22726H20.5ZM22.4997 12.2273H18.8636C18.1105 12.2273 17.5 12.8378 17.5 13.5909C17.5 14.344 18.1105 14.9545 18.8636 14.9545H22.4997V16.3182H18.8633C17.3571 16.3182 16.1361 15.0971 16.1361 13.5909C16.1361 12.0847 17.3571 10.8636 18.8633 10.8636H22.4997V12.2273Z" fill="#D7E1EB"/>
</svg>
