<svg width="24" height="24" viewBox="0 0 24 24" fill="none" xmlns="http://www.w3.org/2000/svg">
<path d="M20.5043 6.63973C17.5125 2.02744 11.4044 0.656214 6.6674 3.52331C2.05511 6.39041 0.559237 12.6232 3.55099 17.2355L3.80031 17.6095L2.80305 21.3492L6.54275 20.3519L6.91672 20.6013C8.53725 21.4738 10.2824 21.9725 12.0276 21.9725C13.8975 21.9725 15.7673 21.4738 17.3879 20.4766C22.0002 17.4848 23.3714 11.3767 20.5043 6.63973ZM17.8865 16.2383C17.3879 16.9862 16.7646 17.4848 15.892 17.6095C15.3934 17.6095 14.7701 17.8588 12.2769 16.8616C10.1578 15.8643 8.4126 14.2438 7.16603 12.3739C6.41809 11.5013 6.04412 10.3794 5.91947 9.25751C5.91947 8.26026 6.29344 7.38767 6.91672 6.76438C7.16603 6.51507 7.41534 6.39041 7.66466 6.39041H8.28794C8.53725 6.39041 8.78656 6.39041 8.91122 6.88904C9.16053 7.51232 9.78382 9.0082 9.78382 9.13286C9.90847 9.25751 9.90847 9.50683 9.78382 9.63148C9.90847 9.8808 9.78382 10.1301 9.65916 10.2548C9.5345 10.3794 9.40985 10.6287 9.28519 10.7534C9.03588 10.878 8.91122 11.1274 9.03588 11.3767C9.5345 12.1246 10.1578 12.8726 10.7811 13.4958C11.529 14.1191 12.2769 14.6177 13.1495 14.9917C13.3989 15.1164 13.6482 15.1164 13.7728 14.8671C13.8975 14.6177 14.5208 13.9945 14.7701 13.7451C15.0194 13.4958 15.144 13.4958 15.3934 13.6205L17.3879 14.6177C17.6372 14.7424 17.8865 14.8671 18.0111 14.9917C18.1358 15.3657 18.1358 15.8643 17.8865 16.2383Z" fill="#D7E1EB"/>
</svg>
