<svg width="20" height="20" viewBox="0 0 20 20" fill="none" xmlns="http://www.w3.org/2000/svg">
<path d="M19.8055 8.04136H19V7.99986H10V11.9998H15.6515C14.827 14.3282 12.6115 15.9997 10 15.9997C6.6865 15.9997 4 13.3133 4 9.99982C4 6.68638 6.6865 3.99993 10 3.99993C11.5295 3.99993 12.921 4.57692 13.9805 5.5194L16.809 2.69095C15.023 1.02648 12.634 0 10 0C4.4775 0 0 4.47742 0 9.99982C0 15.5222 4.4775 19.9996 10 19.9996C15.5225 19.9996 20 15.5222 20 9.99982C20 9.32933 19.931 8.67485 19.8055 8.04136Z" fill="#73879B"/>
<path d="M1.15302 5.34541L4.43851 7.75486C5.32751 5.5539 7.48051 3.99993 10 3.99993C11.5295 3.99993 12.921 4.57692 13.9805 5.5194L16.809 2.69095C15.023 1.02648 12.634 0 10 0C6.15901 0 2.82801 2.16846 1.15302 5.34541Z" fill="#73879B"/>
<path d="M9.99997 20.0002C12.583 20.0002 14.93 19.0117 16.7045 17.4042L13.6095 14.7853C12.5717 15.5745 11.3037 16.0013 9.99997 16.0003C7.39897 16.0003 5.19047 14.3418 4.35847 12.0273L1.09747 14.5398C2.75247 17.7782 6.11347 20.0002 9.99997 20.0002Z" fill="#73879B"/>
<path d="M19.8055 8.0415H19V8H10V11.9999H15.6515C15.2571 13.1081 14.5467 14.0765 13.608 14.7854L13.6095 14.7844L16.7045 17.4033C16.4855 17.6023 20 14.9999 20 9.99996C20 9.32948 19.931 8.67499 19.8055 8.0415Z" fill="#73879B"/>
</svg>
