<svg width="20" height="20" viewBox="0 0 20 20" fill="none" xmlns="http://www.w3.org/2000/svg">
<path d="M9.99992 18.3327C10.9166 18.3327 11.6666 17.5827 11.6666 16.666H8.33326C8.33326 17.5827 9.08326 18.3327 9.99992 18.3327ZM14.9999 8.33268C14.9999 6.00768 13.4083 4.04935 11.2499 3.49935V2.91602C11.2499 2.22435 10.6916 1.66602 9.99992 1.66602C9.30826 1.66602 8.74992 2.22435 8.74992 2.91602V3.49935C6.59159 4.04935 4.99992 6.00768 4.99992 8.33268V14.166H4.16659C3.70826 14.166 3.33326 14.541 3.33326 14.9993C3.33326 15.4577 3.70826 15.8327 4.16659 15.8327H15.8333C16.2916 15.8327 16.6666 15.4577 16.6666 14.9993C16.6666 14.541 16.2916 14.166 15.8333 14.166H14.9999V8.33268ZM5.12492 2.62435C4.79159 2.29102 4.24992 2.29935 3.92492 2.64102C2.69334 3.94971 1.9186 5.622 1.71659 7.40768C1.66659 7.89935 2.05826 8.33268 2.54992 8.33268C2.96659 8.33268 3.32492 8.02435 3.37492 7.60768C3.53326 6.13268 4.18326 4.79935 5.14159 3.76602C5.44992 3.44935 5.44159 2.94102 5.12492 2.62435ZM14.8833 2.63268C14.5666 2.94935 14.5583 3.45768 14.8666 3.78268C15.8586 4.83305 16.4791 6.1795 16.6333 7.61602C16.6749 8.03268 17.0416 8.34102 17.4583 8.34102C17.5759 8.34173 17.6923 8.31755 17.7998 8.27006C17.9074 8.22257 18.0037 8.15285 18.0825 8.06548C18.1612 7.97811 18.2205 7.87507 18.2565 7.76313C18.2926 7.6512 18.3045 7.5329 18.2916 7.41602C18.0916 5.58268 17.2916 3.93268 16.0916 2.65768C15.7583 2.30768 15.2166 2.29935 14.8833 2.63268Z" fill="#73879B"/>
<circle cx="14.3334" cy="5.5" r="5.5" fill="#E17DD2"/>
</svg>
