<svg width="25" height="24" viewBox="0 0 25 24" fill="none" xmlns="http://www.w3.org/2000/svg">
<path d="M12.5029 2C14.013 2.00087 15.5033 2.34375 16.862 3.00292C18.2207 3.66208 19.4124 4.6204 20.3478 5.80596C21.2832 6.99152 21.9379 8.37354 22.2628 9.8483C22.5877 11.3231 22.5744 12.8523 22.2239 14.3211C21.8734 15.79 21.1947 17.1604 20.2388 18.3296C19.283 19.4987 18.0748 20.4361 16.7048 21.0715C15.3349 21.707 13.8388 22.0239 12.3289 21.9985C10.819 21.9731 9.33444 21.606 7.98665 20.9249L7.8354 20.8436L3.27918 21.9811C3.19149 22.0032 3.10006 22.0059 3.01121 21.9892C2.92235 21.9725 2.83818 21.9367 2.7645 21.8843C2.69082 21.8319 2.62939 21.7641 2.58445 21.6857C2.53951 21.6072 2.51212 21.52 2.50418 21.4299V21.3274L2.52168 21.2236L3.65917 16.6687L3.58042 16.5187C3.00841 15.3926 2.65629 14.1678 2.54293 12.9099L2.51168 12.4324L2.50293 11.9999C2.50293 9.34779 3.55649 6.80427 5.43184 4.92891C7.3072 3.05356 9.85072 2 12.5029 2V2ZM13.1279 13.2499H9.37789L9.26539 13.2599C9.12129 13.286 8.99092 13.3619 8.89705 13.4743C8.80317 13.5867 8.75175 13.7285 8.75175 13.8749C8.75175 14.0214 8.80317 14.1632 8.89705 14.2756C8.99092 14.388 9.12129 14.4638 9.26539 14.4899L9.37789 14.4999H13.1279L13.2404 14.4899C13.3845 14.4638 13.5148 14.388 13.6087 14.2756C13.7026 14.1632 13.754 14.0214 13.754 13.8749C13.754 13.7285 13.7026 13.5867 13.6087 13.4743C13.5148 13.3619 13.3845 13.286 13.2404 13.2599L13.1279 13.2499ZM15.6279 9.49996H9.37789L9.26539 9.50996C9.12129 9.53605 8.99092 9.61191 8.89705 9.72431C8.80317 9.83671 8.75175 9.97851 8.75175 10.125C8.75175 10.2714 8.80317 10.4132 8.89705 10.5256C8.99092 10.638 9.12129 10.7139 9.26539 10.7399L9.37789 10.7499H15.6279L15.7404 10.7399C15.8845 10.7139 16.0148 10.638 16.1087 10.5256C16.2026 10.4132 16.254 10.2714 16.254 10.125C16.254 9.97851 16.2026 9.83671 16.1087 9.72431C16.0148 9.61191 15.8845 9.53605 15.7404 9.50996L15.6279 9.49996Z" fill="#D7E1EB"/>
</svg>
