<svg width="36" height="36" viewBox="0 0 36 36" fill="none" xmlns="http://www.w3.org/2000/svg">
<path d="M26.92 29.9118L16.5942 24.289C16.3251 24.1422 15.9969 24.1625 15.7426 24.3397L7.84689 29.9624C7.55153 30.1734 7.42355 30.5564 7.53184 30.9091C7.63686 31.2584 7.95518 31.4997 8.31289 31.4997H26.5344C26.9102 31.4997 27.24 31.2365 27.3302 30.8585C27.4221 30.4822 27.2515 30.0924 26.92 29.9118Z" fill="#73879B"/>
<path d="M30.3758 28.3107L27.9473 17.0669C27.8882 16.7919 27.6995 16.5674 27.4452 16.4645C27.1892 16.3616 26.9021 16.397 26.6789 16.5556L18.7816 22.1784C18.5453 22.3471 18.4124 22.6289 18.4304 22.9209C18.4468 23.2162 18.6126 23.4794 18.8653 23.6161L29.1894 29.2389C29.3109 29.3047 29.4421 29.3384 29.5734 29.3384C29.749 29.3384 29.9245 29.2811 30.0706 29.1646C30.3249 28.9655 30.4447 28.6331 30.3758 28.3107Z" fill="#73879B"/>
<path d="M24.6622 15.2173C24.5539 14.8646 24.2372 14.625 23.8779 14.625H16.3891C15.0272 17.1613 13.0122 19.5863 12.1836 20.5346C11.7176 21.0679 11.0498 21.375 10.3524 21.375C9.65507 21.375 8.98725 21.0679 8.52125 20.5346C8.20128 20.1684 7.70575 19.5829 7.13802 18.8573L5.1526 28.0474C5.0804 28.3866 5.21659 28.7359 5.49554 28.9299C5.63337 29.0261 5.79417 29.0734 5.95333 29.0734C6.11741 29.0734 6.27986 29.0244 6.42097 28.9232L24.3439 16.1606C24.6409 15.9531 24.7672 15.57 24.6622 15.2173Z" fill="#73879B"/>
<path d="M10.3525 4.5C7.18565 4.5 4.60953 7.14938 4.60953 10.4063C4.60953 13.437 9.21701 18.8049 9.74208 19.4074C9.89796 19.5846 10.1195 19.6875 10.3525 19.6875C10.5855 19.6875 10.807 19.5846 10.9629 19.4074C11.4879 18.8049 16.0954 13.437 16.0954 10.4063C16.0954 7.14938 13.5193 4.5 10.3525 4.5ZM10.3525 12.9375C8.99386 12.9375 7.89121 11.8035 7.89121 10.4063C7.89121 9.009 8.99386 7.875 10.3525 7.875C11.7111 7.875 12.8137 9.009 12.8137 10.4063C12.8137 11.8035 11.7111 12.9375 10.3525 12.9375Z" fill="#73879B"/>
</svg>
