<svg width="17" height="17" viewBox="0 0 17 17" fill="none" xmlns="http://www.w3.org/2000/svg">
<path d="M6.32393 2.08334V3.62181H4.27264V13.8782H6.32393V15.4167H7.34957V13.8782H8.37521V15.4167H9.40085V13.8782H10.1701C11.7224 13.8782 12.9906 12.61 12.9906 11.0577C12.9906 9.99001 12.3957 9.05257 11.5162 8.5736C11.9478 8.19473 12.2538 7.69341 12.3934 7.13637C12.533 6.57933 12.4997 5.99297 12.2979 5.45533C12.096 4.91769 11.7352 4.45426 11.2635 4.12672C10.7918 3.79919 10.2315 3.62307 9.65726 3.62181H9.40085V2.08334H8.37521V3.62181H7.34957V2.08334H6.32393ZM5.29829 4.64745H9.65726C10.6547 4.64745 11.4521 5.44488 11.4521 6.44232C11.4521 7.43975 10.6547 8.23719 9.65726 8.23719H5.29829V4.64745ZM5.29829 9.26283H10.1701C11.1675 9.26283 11.965 10.0603 11.965 11.0577C11.965 12.0551 11.1675 12.8526 10.1701 12.8526H5.29829V9.26283Z" fill="#D7E1EB"/>
</svg>
