<svg width="20" height="20" viewBox="0 0 20 20" fill="none" xmlns="http://www.w3.org/2000/svg">
<path d="M3.8832 17.4765L3.87603 17.4734L3.86881 17.4705C3.62258 17.3713 3.41203 17.2001 3.26468 16.9793C3.11733 16.7584 3.04004 16.4983 3.04292 16.2328H3.04297V16.2247V5.16971C3.04395 4.43969 3.33439 3.73985 3.8506 3.22364C4.3668 2.70743 5.06665 2.417 5.79666 2.41602H14.2034C14.9334 2.417 15.6333 2.70743 16.1495 3.22364C16.6656 3.73978 16.9561 4.4395 16.9571 5.16941C16.9571 5.16965 16.9571 5.16989 16.9571 5.17013L16.9571 16.2247H16.9571L16.9572 16.2332C16.9602 16.4985 16.8832 16.7585 16.7362 16.9793C16.5891 17.2001 16.379 17.3714 16.1331 17.4709L16.1331 17.4709L16.1246 17.4744C15.9566 17.5448 15.7764 17.5815 15.5943 17.5822C15.4202 17.5817 15.2479 17.5467 15.0873 17.4794C14.9262 17.4118 14.7801 17.3129 14.6575 17.1885L14.6575 17.1885L14.6522 17.1832L10.5289 13.0823L10 12.5563L9.47116 13.0823L5.34788 17.1832L5.34785 17.1831L5.34228 17.1888C5.15617 17.3779 4.9174 17.5064 4.65713 17.5578C4.39685 17.6091 4.12714 17.5808 3.8832 17.4765Z" stroke="#323C46" stroke-width="1.5"/>
</svg>
