<svg width="12" height="13" viewBox="0 0 12 13" fill="none" xmlns="http://www.w3.org/2000/svg">
<path d="M2.15304 11.4001C2.38259 11.4982 2.63638 11.5248 2.88129 11.4765C3.12621 11.4282 3.35089 11.3073 3.52602 11.1294L5.99999 8.66884L8.47396 11.1294C8.58931 11.2464 8.72673 11.3394 8.87827 11.403C9.0298 11.4665 9.19244 11.4994 9.35677 11.4997C9.52568 11.4992 9.69283 11.4654 9.84862 11.4001C10.08 11.3064 10.2779 11.1452 10.4162 10.9374C10.5546 10.7295 10.6271 10.4848 10.6242 10.2352V3.60193C10.6236 3.04467 10.4019 2.51042 10.0079 2.11638C9.61381 1.72233 9.07957 1.50067 8.5223 1.5L3.47767 1.5C2.92041 1.50067 2.38617 1.72233 1.99212 2.11638C1.59808 2.51042 1.37641 3.04467 1.37574 3.60193V10.2352C1.37303 10.485 1.44577 10.7299 1.58445 10.9377C1.72313 11.1455 1.9213 11.3067 2.15304 11.4001Z" fill="#F9F9F9"/>
</svg>
