<svg width="36" height="36" viewBox="0 0 36 36" fill="none" xmlns="http://www.w3.org/2000/svg">
<path d="M30.629 13.0957V11.6719C30.629 10.0409 29.3434 8.71875 27.7575 8.71875H7.24702C5.66115 8.71875 4.37555 10.0409 4.37555 11.6719V13.0957C4.37555 13.2413 4.49036 13.3594 4.63193 13.3594H30.3726C30.5142 13.3594 30.629 13.2413 30.629 13.0957Z" fill="#73879B"/>
<path d="M4.37555 15.3105V24.3281C4.37555 25.9591 5.66115 27.2812 7.24702 27.2812H27.7575C29.3434 27.2812 30.629 25.9591 30.629 24.3281V15.3105C30.629 15.1649 30.5142 15.0469 30.3726 15.0469H4.63193C4.49036 15.0469 4.37555 15.1649 4.37555 15.3105ZM10.9389 22.2188C10.9389 22.6847 10.5716 23.0625 10.1185 23.0625H9.29807C8.84499 23.0625 8.47765 22.6847 8.47765 22.2188V21.375C8.47765 20.909 8.84499 20.5312 9.29807 20.5312H10.1185C10.5716 20.5312 10.9389 20.909 10.9389 21.375V22.2188Z" fill="#73879B"/>
</svg>
