<svg width="16" height="17" viewBox="0 0 16 17" fill="none" xmlns="http://www.w3.org/2000/svg">
<path d="M14.1153 4.09837C13.9591 3.91084 13.7634 3.76001 13.5423 3.6566C13.3212 3.5532 13.08 3.49974 12.8359 3.50004H3.85368L3.83034 3.30504C3.78259 2.89972 3.58778 2.526 3.28284 2.25475C2.9779 1.9835 2.58402 1.83356 2.1759 1.83337L2.05256 1.83337C1.90522 1.83337 1.76391 1.89191 1.65973 1.99609C1.55554 2.10028 1.49701 2.24159 1.49701 2.38893C1.49701 2.53627 1.55554 2.67758 1.65973 2.78177C1.76391 2.88595 1.90522 2.94449 2.05256 2.94449H2.1759C2.31197 2.9445 2.44331 2.99446 2.54499 3.08488C2.64668 3.1753 2.71164 3.2999 2.72756 3.43504L3.49201 9.93504C3.57137 10.611 3.89616 11.2344 4.40474 11.6867C4.91331 12.1391 5.57026 12.3889 6.2509 12.3889H12.0526C12.1999 12.3889 12.3412 12.3304 12.4454 12.2262C12.5496 12.122 12.6081 11.9807 12.6081 11.8334C12.6081 11.686 12.5496 11.5447 12.4454 11.4405C12.3412 11.3364 12.1999 11.2778 12.0526 11.2778H6.2509C5.90704 11.2769 5.5719 11.1696 5.29142 10.9706C5.01094 10.7717 4.79885 10.4909 4.68423 10.1667H11.3065C11.9577 10.1667 12.5883 9.93795 13.088 9.52028C13.5877 9.10262 13.9248 8.52265 14.0403 7.88171L14.4765 5.46282C14.52 5.22282 14.5102 4.97619 14.4478 4.74039C14.3854 4.5046 14.2719 4.28542 14.1153 4.09837Z" fill="#F9F9F9"/>
<path d="M5.38577 15.1667C5.99942 15.1667 6.49688 14.6692 6.49688 14.0556C6.49688 13.4419 5.99942 12.9445 5.38577 12.9445C4.77212 12.9445 4.27466 13.4419 4.27466 14.0556C4.27466 14.6692 4.77212 15.1667 5.38577 15.1667Z" fill="#F9F9F9"/>
<path d="M10.9414 15.1667C11.5551 15.1667 12.0525 14.6692 12.0525 14.0556C12.0525 13.4419 11.5551 12.9445 10.9414 12.9445C10.3278 12.9445 9.83032 13.4419 9.83032 14.0556C9.83032 14.6692 10.3278 15.1667 10.9414 15.1667Z" fill="#F9F9F9"/>
</svg>
