<svg width="12" height="13" viewBox="0 0 12 13" fill="none" xmlns="http://www.w3.org/2000/svg">
<path d="M1.875 2C1.77554 2 1.68016 2.03951 1.60984 2.10983C1.53951 2.18016 1.5 2.27554 1.5 2.375C1.5 2.47446 1.53951 2.56984 1.60984 2.64017C1.68016 2.71049 1.77554 2.75 1.875 2.75H2.396L1.0275 6.1085C1.00927 6.15344 0.99993 6.2015 1 6.25C1 6.47981 1.04527 6.70738 1.13321 6.9197C1.22116 7.13202 1.35006 7.32493 1.51256 7.48744C1.67507 7.64994 1.86798 7.77884 2.0803 7.86679C2.29262 7.95474 2.52019 8 2.75 8C2.97981 8 3.20738 7.95474 3.4197 7.86679C3.63202 7.77884 3.82493 7.64994 3.98744 7.48744C4.14994 7.32493 4.27884 7.13202 4.36679 6.9197C4.45474 6.70738 4.5 6.47981 4.5 6.25C4.50007 6.2015 4.49073 6.15344 4.4725 6.1085L3.104 2.75H5.625V8.75H3.6265C3.32813 8.75 3.04198 8.86853 2.83101 9.0795C2.62003 9.29048 2.5015 9.57663 2.5015 9.875C2.5015 10.1734 2.62003 10.4595 2.83101 10.6705C3.04198 10.8815 3.32813 11 3.6265 11H8.375C8.67337 11 8.95952 10.8815 9.1705 10.6705C9.38147 10.4595 9.5 10.1734 9.5 9.875C9.5 9.57663 9.38147 9.29048 9.1705 9.0795C8.95952 8.86853 8.67337 8.75 8.375 8.75H6.375V2.75H8.896L7.5275 6.1085C7.50927 6.15344 7.49993 6.2015 7.5 6.25C7.5 6.71413 7.68437 7.15925 8.01256 7.48744C8.34075 7.81563 8.78587 8 9.25 8C9.71413 8 10.1592 7.81563 10.4874 7.48744C10.8156 7.15925 11 6.71413 11 6.25C11.0001 6.2015 10.9907 6.15344 10.9725 6.1085L9.604 2.75H10.125C10.2245 2.75 10.3198 2.71049 10.3902 2.64017C10.4605 2.56984 10.5 2.47446 10.5 2.375C10.5 2.27554 10.4605 2.18016 10.3902 2.10983C10.3198 2.03951 10.2245 2 10.125 2H1.875ZM2.75 3.869L3.5675 5.875H1.9325L2.75 3.869ZM8.4325 5.875L9.25 3.869L10.0675 5.875H8.4325Z" fill="#F9F9F9"/>
</svg>
