<svg width="20" height="20" viewBox="0 0 20 20" fill="none" xmlns="http://www.w3.org/2000/svg">
<path d="M4.45633 3.93867L4.58329 3.62708L4.71026 3.93867L6.99079 9.53544C6.99083 9.53553 6.99086 9.53561 6.9909 9.5357C6.99691 9.55061 6.99998 9.56653 6.99996 9.58261V9.58333C6.99996 9.90069 6.93745 10.2149 6.816 10.5082C6.69455 10.8014 6.51654 11.0678 6.29214 11.2922C6.06773 11.5166 5.80132 11.6946 5.50811 11.816C5.21491 11.9375 4.90066 12 4.58329 12C4.26593 12 3.95168 11.9375 3.65848 11.816C3.36527 11.6946 3.09886 11.5166 2.87445 11.2922C2.65004 11.0678 2.47203 10.8014 2.35058 10.5082L1.8914 10.6983L2.35058 10.5082C2.22914 10.2149 2.16663 9.90069 2.16663 9.58333L2.16663 9.58261C2.1666 9.56654 2.16968 9.55062 2.17568 9.53571C2.17572 9.53562 2.17576 9.53553 2.17579 9.53544L4.45633 3.93867ZM4.73695 3.25H4.42964H3.99329H3.12496C3.09181 3.25 3.06001 3.23683 3.03657 3.21339C3.01313 3.18995 2.99996 3.15815 2.99996 3.125C2.99996 3.09185 3.01313 3.06005 3.03657 3.03661C3.06001 3.01317 3.09181 3 3.12496 3H16.875C16.9081 3 16.9399 3.01317 16.9634 3.03661C16.9868 3.06005 17 3.09185 17 3.125C17 3.15815 16.9868 3.18995 16.9634 3.21339C16.9399 3.23683 16.9081 3.25 16.875 3.25H16.0066H15.5703H15.263H14.8266H10.625H10.125V3.75V13.75V14.25H10.625H13.9583C14.323 14.25 14.6727 14.3949 14.9306 14.6527C15.1884 14.9106 15.3333 15.2603 15.3333 15.625C15.3333 15.9897 15.1884 16.3394 14.9306 16.5973C14.6727 16.8551 14.323 17 13.9583 17H6.04413C5.67945 17 5.32972 16.8551 5.07186 16.5973C4.81399 16.3394 4.66913 15.9897 4.66913 15.625C4.66913 15.2603 4.81399 14.9106 5.07185 14.6527C5.32972 14.3949 5.67945 14.25 6.04413 14.25H9.37496H9.87496V13.75V3.75V3.25H9.37496H5.17329H4.73695ZM15.2897 3.93867L15.4166 3.62708L15.5436 3.93867L17.8241 9.53545C17.8302 9.55043 17.8333 9.56644 17.8333 9.5826V9.58333C17.8333 10.2243 17.5787 10.839 17.1255 11.2922C16.6723 11.7454 16.0576 12 15.4166 12C14.7757 12 14.161 11.7454 13.7078 11.2922C13.2546 10.839 13 10.2243 13 9.58333L13 9.58261C12.9999 9.56656 13.003 9.55065 13.009 9.53576C13.009 9.53565 13.0091 9.53555 13.0091 9.53544L15.2897 3.93867ZM7.49996 9.58333C7.50008 9.5025 7.48451 9.42241 7.45413 9.3475L5.37703 4.25H5.17329V3.75L5.63633 3.56133L5.71321 3.75H8.87496H9.37496V4.25V13.25V13.75H8.87496H6.04413C5.54685 13.75 5.06993 13.9475 4.7183 14.2992L7.49996 9.58333ZM5.04632 5.4263L4.58329 4.29012L4.12027 5.4263L2.75777 8.76964L2.4771 9.45833H3.22079H5.94579H6.68948L6.40882 8.76964L5.04632 5.4263ZM13.5911 8.76964L13.3104 9.45833H14.0541H16.7791H17.5228L17.2422 8.76964L15.8797 5.4263L15.4166 4.29012L14.9536 5.4263L13.5911 8.76964Z" stroke="#323C46"/>
</svg>
