<svg width="16" height="17" viewBox="0 0 16 17" fill="none" xmlns="http://www.w3.org/2000/svg">
<path d="M14.2272 15.4998C14.6539 15.4998 14.9999 15.1538 14.9999 14.7271V2.27267C14.9999 1.84589 14.6539 1.5 14.2272 1.5H1.77279C1.34596 1.5 1.00012 1.84589 1.00012 2.27267V14.7271C1.00012 15.1538 1.34596 15.4998 1.77279 15.4998H14.2272Z" fill="white"/>
<path d="M10.6597 15.5006V10.0791H12.4795L12.7519 7.96631H10.6597V6.6173C10.6597 6.00558 10.8296 5.58871 11.7068 5.58871L12.8256 5.58821V3.69852C12.632 3.67276 11.9679 3.61523 11.1953 3.61523C9.58217 3.61523 8.47783 4.59986 8.47783 6.40813V7.96631H6.65338V10.0791H8.47783V15.5006H10.6597Z" fill="#15499F"/>
</svg>
