<svg width="17" height="17" viewBox="0 0 17 17" fill="none" xmlns="http://www.w3.org/2000/svg">
<path d="M15.9393 6.93309H15.2949V6.89989H8.09491V10.0998H12.6161C11.9565 11.9626 10.1841 13.2998 8.09491 13.2998C5.44411 13.2998 3.29491 11.1506 3.29491 8.49986C3.29491 5.84911 5.44411 3.69994 8.09491 3.69994C9.31851 3.69994 10.4317 4.16154 11.2793 4.91552L13.5421 2.65276C12.1133 1.32119 10.2021 0.5 8.09491 0.5C3.67691 0.5 0.0949097 4.08194 0.0949097 8.49986C0.0949097 12.9178 3.67691 16.4997 8.09491 16.4997C12.5129 16.4997 16.0949 12.9178 16.0949 8.49986C16.0949 7.96347 16.0397 7.43988 15.9393 6.93309Z" fill="#F9F9F9"/>
<path d="M1.01733 4.77632L3.64573 6.70389C4.35693 4.94312 6.07933 3.69994 8.09493 3.69994C9.31853 3.69994 10.4317 4.16153 11.2793 4.91552L13.5421 2.65276C12.1133 1.32119 10.2021 0.5 8.09493 0.5C5.02213 0.5 2.35733 2.23477 1.01733 4.77632Z" fill="#FF3D00"/>
<path d="M8.0949 16.4994C10.1613 16.4994 12.0389 15.7086 13.4585 14.4226L10.9825 12.3275C10.1523 12.9588 9.13788 13.3003 8.0949 13.2994C6.0141 13.2994 4.2473 11.9727 3.5817 10.1211L0.9729 12.1311C2.2969 14.7218 4.9857 16.4994 8.0949 16.4994Z" fill="#4CAF50"/>
<path d="M15.9393 6.93359H15.2949V6.90039H8.09491V10.1003H12.6161C12.3006 10.9869 11.7323 11.7616 10.9813 12.3287L10.9825 12.3279L13.4585 14.4231C13.2833 14.5823 16.0949 12.5003 16.0949 8.50036C16.0949 7.96397 16.0397 7.44038 15.9393 6.93359Z" fill="#1976D2"/>
</svg>
