<svg width="94" height="38" viewBox="0 0 94 38" fill="none" xmlns="http://www.w3.org/2000/svg">
<path fill-rule="evenodd" clip-rule="evenodd" d="M25.888 16.7762C26.5837 16.0806 26.5837 14.8879 25.888 14.1923L31.4535 19.7578C32.1492 20.4534 32.1492 21.646 31.4535 22.3417L17.341 36.4542C16.6453 37.1499 15.4527 37.1499 14.757 36.4542L4.91805 26.6152L10.4835 21.0497L16.049 26.6152C19.3287 23.3356 22.6084 20.0559 25.888 16.7762Z" fill="#8778F5"/>
<path fill-rule="evenodd" clip-rule="evenodd" d="M0.6444 19.7577L14.7569 5.64524C15.4526 4.94955 16.6452 4.94955 17.3409 5.64524L21.6144 9.91875L16.0489 15.4842L21.6144 21.0497L16.0489 26.6152L10.4834 21.0497L4.91791 26.6152L0.6444 22.3417C-0.0512869 21.646 -0.0512869 20.4534 0.6444 19.7577Z" fill="#F078DC"/>
<path fill-rule="evenodd" clip-rule="evenodd" d="M21.6142 9.9187L25.8877 14.1922C26.5834 14.8879 26.5834 16.0805 25.8877 16.7762L21.6142 21.0497L16.0487 15.4842L21.6142 9.9187Z" fill="#73C8EB"/>
<path d="M46.0792 20H44.0042V5.175H38.7292V3.325H51.3792V5.175H46.0792V20ZM62.8534 20.3C60.4201 20.3 58.3784 19.5 56.7284 17.9C55.0951 16.2833 54.2784 14.2083 54.2784 11.675C54.2784 9.14167 55.0951 7.075 56.7284 5.475C58.3784 3.85833 60.4201 3.05 62.8534 3.05C65.5201 3.05 67.6284 4.15 69.1784 6.35L67.4284 7.325C66.9451 6.60833 66.2951 6.025 65.4784 5.575C64.6618 5.125 63.7868 4.9 62.8534 4.9C61.0201 4.9 59.4868 5.54167 58.2534 6.825C57.0368 8.09167 56.4284 9.70833 56.4284 11.675C56.4284 13.6417 57.0368 15.2667 58.2534 16.55C59.4868 17.8167 61.0201 18.45 62.8534 18.45C63.7868 18.45 64.6618 18.2333 65.4784 17.8C66.2951 17.35 66.9451 16.7583 67.4284 16.025L69.2034 17C67.5868 19.2 65.4701 20.3 62.8534 20.3ZM75.4229 20H73.3479V3.325H80.0479C81.6646 3.325 82.9396 3.80833 83.8729 4.775C84.8063 5.74167 85.2729 6.93333 85.2729 8.35C85.2729 9.76667 84.7979 10.9583 83.8479 11.925C82.9146 12.8917 81.6479 13.375 80.0479 13.375H75.4229V20ZM79.7979 11.525C80.7813 11.525 81.5813 11.2333 82.1979 10.65C82.8146 10.05 83.1229 9.28333 83.1229 8.35C83.1229 7.41667 82.8146 6.65833 82.1979 6.075C81.5813 5.475 80.7813 5.175 79.7979 5.175H75.4229V11.525H79.7979Z" fill="#F9F9F9"/>
<path d="M47.7012 37H46.2972V31.06L43.8372 37H43.2372L40.7892 31.06V37H39.3852V28.996H41.3652L43.5372 34.264L45.7212 28.996H47.7012V37ZM56.6047 37H55.0087L54.4207 35.464H50.7487L50.1607 37H48.5647L51.7087 28.996H53.4607L56.6047 37ZM54.0247 34.228L52.5847 30.412L51.1447 34.228H54.0247ZM63.671 37H62.051L60.275 34.012H58.883V37H57.479V28.996H60.995C61.779 28.996 62.411 29.228 62.891 29.692C63.371 30.156 63.611 30.76 63.611 31.504C63.611 32.176 63.427 32.716 63.059 33.124C62.691 33.524 62.243 33.768 61.715 33.856L63.671 37ZM60.803 32.776C61.203 32.776 61.531 32.66 61.787 32.428C62.043 32.196 62.171 31.888 62.171 31.504C62.171 31.12 62.043 30.812 61.787 30.58C61.531 30.348 61.203 30.232 60.803 30.232H58.883V32.776H60.803ZM71.5301 37H69.8021L67.1141 33.628L66.4181 34.444V37H65.0141V28.996H66.4181V32.812L69.5501 28.996H71.2901L68.0381 32.776L71.5301 37ZM77.9512 37H72.4672V28.996H77.9512V30.232H73.8712V32.308H77.8672V33.544H73.8712V35.764H77.9512V37ZM82.705 37H81.301V30.232H78.877V28.996H85.129V30.232H82.705V37Z" fill="#F9F9F9"/>
</svg>
