<svg width="24" height="24" viewBox="0 0 24 24" fill="none" xmlns="http://www.w3.org/2000/svg">
<path fill-rule="evenodd" clip-rule="evenodd" d="M19.416 8.83056C19.9377 8.3088 19.9377 7.41434 19.416 6.89258L23.5901 11.0667C24.1119 11.5885 24.1119 12.4829 23.5901 13.0047L13.0057 23.5891C12.4839 24.1108 11.5895 24.1108 11.0677 23.5891L3.68848 16.2098L7.8626 12.0357L12.0367 16.2098C14.4965 13.7501 16.9562 11.2903 19.416 8.83056Z" fill="#8778F5"/>
<path fill-rule="evenodd" clip-rule="evenodd" d="M0.483365 11.0675L11.0677 0.483121C11.5895 -0.0386445 12.484 -0.0386445 13.0057 0.483121L16.2109 3.68825L12.0367 7.86237L16.2109 12.0365L12.0367 16.2106L7.86262 12.0365L3.6885 16.2106L0.483365 13.0055C-0.0384003 12.4837 -0.0384003 11.5893 0.483365 11.0675Z" fill="#F078DC"/>
<path fill-rule="evenodd" clip-rule="evenodd" d="M16.2107 3.6875L19.4159 6.89263C19.9376 7.4144 19.9376 8.30885 19.4159 8.83062L16.2107 12.0357L12.0366 7.86162L16.2107 3.6875Z" fill="#73C8EB"/>
</svg>
