<svg width="36" height="36" viewBox="0 0 36 36" fill="none" xmlns="http://www.w3.org/2000/svg">
<path d="M17.5022 22.5C18.1289 22.5 19.0102 20.7573 19.1212 18H15.8833C15.9942 20.7573 16.8756 22.5 17.5022 22.5Z" fill="#73879B"/>
<path d="M12.6349 16.8735H14.7786C14.8392 15.3413 15.1469 13.8174 15.681 12.7422C14.0315 13.4216 12.8406 14.9928 12.6349 16.8735Z" fill="#73879B"/>
<path d="M19.3235 12.7422C19.8576 13.8175 20.1653 15.3413 20.2259 16.8735H22.3696C22.1639 14.9928 20.973 13.4216 19.3235 12.7422Z" fill="#73879B"/>
<path d="M17.5022 12.375C16.8756 12.375 15.9942 14.1177 15.8833 16.875H19.1212C19.0102 14.1177 18.1289 12.375 17.5022 12.375Z" fill="#73879B"/>
<path d="M12.6349 18C12.8406 19.8807 14.0315 21.4519 15.681 22.1313C15.1469 21.056 14.8392 19.5323 14.7786 18H12.6349Z" fill="#73879B"/>
<path d="M25.1596 7.87503H24.0657V6.71123C24.0657 5.30654 22.7773 4.2084 21.3891 4.56932L9.72023 7.888C8.57266 7.95608 7.65723 8.92803 7.65723 10.125V29.25C7.65723 30.4909 8.63845 31.5 9.84503 31.5H25.1596C26.3662 31.5 27.3473 30.4909 27.3473 29.25V10.125C27.3473 8.8841 26.3662 7.87503 25.1596 7.87503ZM21.6701 5.65644C22.3084 5.4889 22.9717 6.02062 22.9717 6.71118V7.87497H13.8701L21.6701 5.65644ZM20.2371 28.125H14.2206C13.9183 28.125 13.6736 27.8735 13.6736 27.5625C13.6736 27.2516 13.9183 27 14.2206 27H20.237C20.5393 27 20.784 27.2516 20.784 27.5625C20.784 27.8735 20.5393 28.125 20.2371 28.125ZM22.4248 25.8756H12.0328C11.7305 25.8756 11.4859 25.624 11.4859 25.313C11.4859 25.0021 11.7305 24.7505 12.0328 24.7505H22.4248C22.7271 24.7505 22.9718 25.0021 22.9718 25.313C22.9718 25.624 22.7271 25.8756 22.4248 25.8756ZM17.5023 23.625C14.1848 23.625 11.4859 20.8493 11.4859 17.4375C11.4859 14.0257 14.1848 11.25 17.5023 11.25C20.8198 11.25 23.5187 14.0257 23.5187 17.4375C23.5187 20.8493 20.8198 23.625 17.5023 23.625Z" fill="#73879B"/>
<path d="M19.3235 22.1313C20.973 21.4519 22.1639 19.8806 22.3696 18H20.2259C20.1653 19.5323 19.8576 21.056 19.3235 22.1313Z" fill="#73879B"/>
</svg>
