<svg width="20" height="20" viewBox="0 0 20 20" fill="none" xmlns="http://www.w3.org/2000/svg">
<path d="M16.9445 8.61241H11.389V3.05686C11.389 2.6885 11.2426 2.33523 10.9822 2.07477C10.7217 1.8143 10.3684 1.66797 10.0001 1.66797C9.63173 1.66797 9.27846 1.8143 9.01799 2.07477C8.75752 2.33523 8.61119 2.6885 8.61119 3.05686V8.61241H3.05564C2.68728 8.61241 2.33401 8.75874 2.07354 9.01921C1.81308 9.27968 1.66675 9.63295 1.66675 10.0013C1.66675 10.3697 1.81308 10.7229 2.07354 10.9834C2.33401 11.2439 2.68728 11.3902 3.05564 11.3902H8.61119V16.9457C8.61119 17.3141 8.75752 17.6674 9.01799 17.9278C9.27846 18.1883 9.63173 18.3346 10.0001 18.3346C10.3684 18.3346 10.7217 18.1883 10.9822 17.9278C11.2426 17.6674 11.389 17.3141 11.389 16.9457V11.3902H16.9445C17.3129 11.3902 17.6662 11.2439 17.9266 10.9834C18.1871 10.7229 18.3334 10.3697 18.3334 10.0013C18.3334 9.63295 18.1871 9.27968 17.9266 9.01921C17.6662 8.75874 17.3129 8.61241 16.9445 8.61241Z" fill="#73879B"/>
</svg>
