<svg width="29" height="28" viewBox="0 0 29 28" fill="none" xmlns="http://www.w3.org/2000/svg">
<path d="M20.9696 4.41279L14.8787 2.38185C14.6793 2.31543 14.4637 2.31543 14.2643 2.38185L8.17341 4.41279C7.20499 4.73447 6.36259 5.35316 5.76587 6.18095C5.16916 7.00874 4.84849 8.00353 4.84943 9.02397V13.9988C4.84943 21.3516 13.7937 25.4125 14.1768 25.5816C14.3011 25.6368 14.4355 25.6654 14.5715 25.6654C14.7075 25.6654 14.8419 25.6368 14.9662 25.5816C15.3493 25.4125 24.2936 21.3516 24.2936 13.9988V9.02397C24.2945 8.00353 23.9738 7.00874 23.3771 6.18095C22.7804 5.35316 21.938 4.73447 20.9696 4.41279ZM19.1584 11.7792L15.0051 15.9325C14.8351 16.1036 14.6329 16.2392 14.4101 16.3315C14.1873 16.4238 13.9484 16.4709 13.7072 16.4701H13.6751C13.4291 16.4663 13.1863 16.4127 12.9615 16.3124C12.7368 16.2122 12.5347 16.0674 12.3675 15.8868L10.1256 13.5535C10.0285 13.4634 9.95084 13.3544 9.89737 13.2333C9.84391 13.1121 9.81576 12.9813 9.81467 12.8488C9.81357 12.7164 9.83955 12.5851 9.89101 12.4631C9.94246 12.341 10.0183 12.2308 10.1139 12.1391C10.2095 12.0474 10.3228 11.9763 10.4469 11.9299C10.571 11.8836 10.7032 11.8632 10.8355 11.8698C10.9678 11.8764 11.0973 11.91 11.2161 11.9685C11.335 12.027 11.4406 12.1091 11.5265 12.2099L13.7082 14.4849L17.7798 10.4016C17.9631 10.2245 18.2087 10.1265 18.4636 10.1287C18.7185 10.1309 18.9624 10.2332 19.1426 10.4134C19.3229 10.5937 19.4251 10.8375 19.4274 11.0924C19.4296 11.3473 19.3316 11.5929 19.1545 11.7763L19.1584 11.7792Z" fill="#AAA0FA"/>
</svg>
