<svg width="16" height="16" viewBox="0 0 16 16" fill="none" xmlns="http://www.w3.org/2000/svg">
<path d="M11.8889 6.01398V5.22287C11.8889 4.19148 11.4792 3.20232 10.7499 2.47301C10.0206 1.74371 9.03141 1.33398 8.00001 1.33398C6.96862 1.33398 5.97946 1.74371 5.25015 2.47301C4.52085 3.20232 4.11112 4.19148 4.11112 5.22287V6.01398C3.61632 6.22993 3.19518 6.58539 2.89918 7.03688C2.60318 7.48837 2.44517 8.01634 2.44446 8.55621V11.8895C2.44534 12.626 2.73828 13.332 3.25902 13.8528C3.77977 14.3735 4.48579 14.6664 5.22224 14.6673H10.7778C11.5142 14.6664 12.2203 14.3735 12.741 13.8528C13.2617 13.332 13.5547 12.626 13.5556 11.8895V8.55621C13.5549 8.01634 13.3968 7.48837 13.1008 7.03688C12.8049 6.58539 12.3837 6.22993 11.8889 6.01398ZM8.55557 10.7784C8.55557 10.9258 8.49704 11.0671 8.39285 11.1713C8.28866 11.2755 8.14736 11.334 8.00001 11.334C7.85267 11.334 7.71136 11.2755 7.60718 11.1713C7.50299 11.0671 7.44446 10.9258 7.44446 10.7784V9.66732C7.44446 9.51998 7.50299 9.37867 7.60718 9.27448C7.71136 9.17029 7.85267 9.11176 8.00001 9.11176C8.14736 9.11176 8.28866 9.17029 8.39285 9.27448C8.49704 9.37867 8.55557 9.51998 8.55557 9.66732V10.7784ZM10.7778 5.77843H5.22224V5.22287C5.22224 4.48616 5.51489 3.77962 6.03583 3.25869C6.55676 2.73775 7.2633 2.4451 8.00001 2.4451C8.73673 2.4451 9.44326 2.73775 9.9642 3.25869C10.4851 3.77962 10.7778 4.48616 10.7778 5.22287V5.77843Z" fill="#73C8EB"/>
</svg>
