<svg width="21" height="20" viewBox="0 0 21 20" fill="none" xmlns="http://www.w3.org/2000/svg">
<path fill-rule="evenodd" clip-rule="evenodd" d="M17.1012 6.02273C18.2058 6.02273 19.1012 6.91816 19.1012 8.02273V10.1894V12.4621V14.6288C19.1012 15.7334 18.2058 16.6288 17.1012 16.6288H4.43457C3.33 16.6288 2.43457 15.7334 2.43457 14.6288V5.37122C2.43457 4.26665 3.33 3.37122 4.43457 3.37122H14.5558C15.3926 3.37122 16.0709 4.04957 16.0709 4.88637H4.89669C4.58289 4.88637 4.32851 5.14075 4.32851 5.45455C4.32851 5.76835 4.58289 6.02273 4.89669 6.02273H17.1012ZM19.101 10.1894H16.0709C15.4433 10.1894 14.9346 10.6981 14.9346 11.3257C14.9346 11.9533 15.4433 12.4621 16.0709 12.4621H19.101V13.5985H16.0707C14.8155 13.5985 13.798 12.581 13.798 11.3258C13.798 10.0706 14.8155 9.05305 16.0707 9.05305H19.101V10.1894Z" fill="#73879B"/>
</svg>
