<svg width="28" height="28" viewBox="0 0 28 28" fill="none" xmlns="http://www.w3.org/2000/svg">
<g clip-path="url(#clip0)">
<path d="M26.4985 4.7565C26.1703 4.36268 25.7595 4.04594 25.2951 3.82878C24.8308 3.61163 24.3243 3.49937 23.8117 3.5H4.949L4.9 3.0905C4.79972 2.23932 4.39062 1.45452 3.75024 0.884891C3.10986 0.315261 2.28273 0.000398759 1.42567 0L1.16667 0C0.857247 0 0.560501 0.122916 0.341709 0.341709C0.122916 0.560501 0 0.857247 0 1.16667C0 1.47609 0.122916 1.77283 0.341709 1.99162C0.560501 2.21042 0.857247 2.33333 1.16667 2.33333H1.42567C1.71142 2.33337 1.98723 2.43828 2.20077 2.62817C2.41431 2.81805 2.55073 3.07971 2.58417 3.3635L4.1895 17.0135C4.35616 18.4331 5.03822 19.7421 6.10623 20.692C7.17423 21.6419 8.55383 22.1667 9.98317 22.1667H22.1667C22.4761 22.1667 22.7728 22.0438 22.9916 21.825C23.2104 21.6062 23.3333 21.3094 23.3333 21C23.3333 20.6906 23.2104 20.3938 22.9916 20.175C22.7728 19.9562 22.4761 19.8333 22.1667 19.8333H9.98317C9.26107 19.8313 8.55727 19.606 7.96826 19.1882C7.37925 18.7705 6.93387 18.1808 6.69317 17.5H20.5998C21.9675 17.5001 23.2917 17.0196 24.3411 16.1425C25.3905 15.2654 26.0984 14.0475 26.341 12.7015L27.2568 7.62183C27.3483 7.11784 27.3277 6.59991 27.1967 6.10474C27.0656 5.60958 26.8273 5.14929 26.4985 4.7565Z" fill="#AAA0FA"/>
<path d="M8.16665 27.9987C9.45531 27.9987 10.5 26.954 10.5 25.6654C10.5 24.3767 9.45531 23.332 8.16665 23.332C6.87798 23.332 5.83331 24.3767 5.83331 25.6654C5.83331 26.954 6.87798 27.9987 8.16665 27.9987Z" fill="#AAA0FA"/>
<path d="M19.8333 27.9987C21.122 27.9987 22.1667 26.954 22.1667 25.6654C22.1667 24.3767 21.122 23.332 19.8333 23.332C18.5447 23.332 17.5 24.3767 17.5 25.6654C17.5 26.954 18.5447 27.9987 19.8333 27.9987Z" fill="#AAA0FA"/>
</g>
<defs>
<clipPath id="clip0">
<rect width="28" height="28" fill="white"/>
</clipPath>
</defs>
</svg>
