<svg width="28" height="28" viewBox="0 0 28 28" fill="none" xmlns="http://www.w3.org/2000/svg">
<path d="M12.0555 8.16536V2.33203H15.9444V8.16536C15.9444 8.68106 15.7396 9.17564 15.3749 9.54029C15.0103 9.90495 14.5157 10.1098 14 10.1098C13.4843 10.1098 12.9897 9.90495 12.6251 9.54029C12.2604 9.17564 12.0555 8.68106 12.0555 8.16536ZM17.8889 7.19314H25.6666C25.6651 5.90437 25.1525 4.66882 24.2412 3.75752C23.3299 2.84622 22.0943 2.33358 20.8055 2.33203L17.8889 2.33203V7.19314ZM10.1111 2.33203H7.19442C5.90565 2.33358 4.67011 2.84622 3.7588 3.75752C2.8475 4.66882 2.33486 5.90437 2.33331 7.19314H10.1111V2.33203ZM25.6666 9.13759V20.8043C25.6651 22.093 25.1525 23.3286 24.2412 24.2399C23.3299 25.1512 22.0943 25.6638 20.8055 25.6654H7.19442C5.90565 25.6638 4.67011 25.1512 3.7588 24.2399C2.8475 23.3286 2.33486 22.093 2.33331 20.8043L2.33331 9.13759H10.2491C10.4614 9.97135 10.9453 10.7106 11.6246 11.2387C12.3038 11.7667 13.1396 12.0533 14 12.0533C14.8603 12.0533 15.6961 11.7667 16.3754 11.2387C17.0546 10.7106 17.5386 9.97135 17.7508 9.13759H25.6666ZM21.7778 20.8043C21.7778 20.5464 21.6753 20.2991 21.493 20.1168C21.3107 19.9345 21.0634 19.832 20.8055 19.832H17.8889C17.631 19.832 17.3837 19.9345 17.2014 20.1168C17.0191 20.2991 16.9166 20.5464 16.9166 20.8043C16.9166 21.0621 17.0191 21.3094 17.2014 21.4917C17.3837 21.674 17.631 21.7765 17.8889 21.7765H20.8055C21.0634 21.7765 21.3107 21.674 21.493 21.4917C21.6753 21.3094 21.7778 21.0621 21.7778 20.8043Z" fill="#AAA0FA"/>
</svg>
