<svg width="17" height="17" viewBox="0 0 17 17" fill="none" xmlns="http://www.w3.org/2000/svg">
<path d="M15.0949 4.15739C14.5798 4.38582 14.0262 4.5402 13.4452 4.60966C14.0383 4.25419 14.4937 3.69129 14.7081 3.0206C14.1443 3.35517 13.5275 3.5909 12.8842 3.71759C12.3603 3.1594 11.6138 2.81055 10.7877 2.81055C9.2014 2.81055 7.91532 4.09658 7.91532 5.68273C7.91532 5.90788 7.94075 6.12707 7.98969 6.33734C5.60258 6.21752 3.48618 5.07406 2.0695 3.33631C1.82231 3.76052 1.68067 4.25397 1.68067 4.78028C1.68067 5.7768 2.18778 6.6559 2.95844 7.171C2.50232 7.15672 2.05623 7.03352 1.65743 6.8117C1.65726 6.82373 1.65726 6.83577 1.65726 6.84785C1.65726 8.23948 2.64732 9.40039 3.96125 9.66426C3.53829 9.77929 3.09463 9.79612 2.66417 9.71348C3.02964 10.8546 4.09042 11.685 5.34725 11.7082C4.36424 12.4785 3.12573 12.9377 1.78009 12.9377C1.54821 12.9377 1.31962 12.9241 1.09491 12.8976C2.36601 13.7126 3.87577 14.1881 5.4978 14.1881C10.781 14.1881 13.67 9.81137 13.67 6.01584C13.67 5.89126 13.6672 5.76739 13.6617 5.64423C14.224 5.23773 14.7093 4.73424 15.0949 4.15739Z" fill="white"/>
</svg>
