<svg width="28" height="27" viewBox="0 0 28 27" fill="none" xmlns="http://www.w3.org/2000/svg">
<g clip-path="url(#clip0)">
<path fill-rule="evenodd" clip-rule="evenodd" d="M22.8215 10.1398C23.4083 9.57527 23.4083 8.6075 22.8215 8.04297L27.5158 12.5592C28.1026 13.1238 28.1026 14.0915 27.5158 14.6561L15.6125 26.108C15.0257 26.6725 14.0198 26.6725 13.433 26.108L5.13425 18.1239L9.8285 13.6076L14.5228 18.1239C17.289 15.4625 20.0553 12.8012 22.8215 10.1398Z" fill="#8778F5"/>
<path fill-rule="evenodd" clip-rule="evenodd" d="M1.52966 12.5589L13.4329 1.10699C14.0197 0.542461 15.0256 0.542461 15.6124 1.10699L19.2169 4.57483L14.5227 9.09109L19.2169 13.6074L14.5227 18.1236L9.82843 13.6074L5.13417 18.1236L1.52966 14.6558C0.942874 14.0912 0.942874 13.1235 1.52966 12.5589Z" fill="#F078DC"/>
<path fill-rule="evenodd" clip-rule="evenodd" d="M19.2167 4.57812L22.8213 8.04597C23.408 8.6105 23.408 9.57827 22.8213 10.1428L19.2167 13.6106L14.5225 9.09438L19.2167 4.57812Z" fill="#73C8EB"/>
</g>
<defs>
<clipPath id="clip0">
<rect width="26.9906" height="25.9672" fill="white" transform="translate(0.986084 0.582031)"/>
</clipPath>
</defs>
</svg>
