<svg width="38" height="24" viewBox="0 0 38 24" fill="none" xmlns="http://www.w3.org/2000/svg">
<path d="M29.5556 13.2719C29.787 12.7456 30.5741 10.7719 30.5741 10.7719C30.5741 10.8157 30.8056 10.2456 30.8981 9.93855L31.0833 10.728C31.0833 10.728 31.5926 12.8771 31.6852 13.3157H29.5556V13.2719Z" fill="#D7E1EB"/>
<path fill-rule="evenodd" clip-rule="evenodd" d="M3.16667 0C1.41777 0 0 1.34315 0 3V21C0 22.6569 1.41776 24 3.16667 24H34.8333C36.5822 24 38 22.6569 38 21V3C38 1.34315 36.5822 0 34.8333 0H3.16667ZM25.7593 13.5351C25.7593 15.3772 24 16.6052 21.2685 16.6052C20.1111 16.6052 19 16.3859 18.3982 16.1228L18.7685 14.1052L19.0926 14.2368C19.9259 14.5877 20.4815 14.7193 21.5 14.7193C22.2407 14.7193 23.0278 14.4561 23.0278 13.8421C23.0278 13.4473 22.7037 13.1842 21.6852 12.7456C20.713 12.307 19.4167 11.6052 19.4167 10.3333C19.4167 8.57892 21.2222 7.39471 23.7685 7.39471C24.7407 7.39471 25.5741 7.57015 26.0833 7.78945L25.713 9.71928L25.5278 9.54384C25.0648 9.3684 24.463 9.19296 23.5833 9.19296C22.6111 9.23682 22.1481 9.63156 22.1481 9.98243C22.1481 10.3772 22.7037 10.6842 23.5833 11.0789C25.0648 11.7368 25.7593 12.4824 25.7593 13.5351ZM32.7037 7.52626H30.713C30.1111 7.52626 29.6481 7.7017 29.3704 8.27188L25.5741 16.4736H28.2593C28.2593 16.4736 28.7222 15.3771 28.8148 15.114H32.1019C32.1944 15.421 32.4259 16.4298 32.4259 16.4298H34.8333L32.7037 7.52626ZM3.21296 7.4386L3.16667 7.61404C6.26852 8.3158 8.30556 10.0263 9.18519 12.1316L8.30556 8.18422C8.16667 7.61404 7.75 7.4386 7.19444 7.4386H3.21296ZM14.787 7.52629L10.7593 16.4298H8.02778L5.71296 8.97366C7.37963 9.98243 8.76852 11.5614 9.27778 12.6579L9.55555 13.5789L12.0556 7.48243H14.787V7.52629ZM18.3982 7.48243H15.8519L14.2315 16.4298H16.7778L18.3982 7.48243Z" fill="#D7E1EB"/>
</svg>
